<?xml version="1.0" encoding="UTF-8" standalone="no"?>
<!-- Created with Inkscape (http://www.inkscape.org/) -->

<svg
   xmlns:dc="http://purl.org/dc/elements/1.1/"
   xmlns:cc="http://creativecommons.org/ns#"
   xmlns:rdf="http://www.w3.org/1999/02/22-rdf-syntax-ns#"
   xmlns:svg="http://www.w3.org/2000/svg"
   xmlns="http://www.w3.org/2000/svg"
   xmlns:sodipodi="http://sodipodi.sourceforge.net/DTD/sodipodi-0.dtd"
   xmlns:inkscape="http://www.inkscape.org/namespaces/inkscape"
   width="250.536"
   height="63.196999"
   viewBox="0 0 66.287647 16.720873"
   version="1.1"
   id="svg1351"
   sodipodi:docname="logoWebPĐ.svg"
   inkscape:version="0.92.3 (2405546, 2018-03-11)">
  <defs
     id="defs1345">
    <radialGradient
       fx="0"
       fy="0"
       cx="0"
       cy="0"
       r="1"
       gradientUnits="userSpaceOnUse"
       gradientTransform="matrix(39.390442,0,0,-39.390442,167.54346,261.15625)"
       spreadMethod="pad"
       id="radialGradient1029">
      <stop
         style="stop-opacity:1;stop-color:#ef3620"
         offset="0"
         id="stop1021" />
      <stop
         style="stop-opacity:1;stop-color:#e81d25"
         offset="0.515152"
         id="stop1023" />
      <stop
         style="stop-opacity:1;stop-color:#d51d24"
         offset="0.95485563"
         id="stop1025" />
      <stop
         style="stop-opacity:1;stop-color:#d51d24"
         offset="1"
         id="stop1027" />
    </radialGradient>
    <radialGradient
       fx="0"
       fy="0"
       cx="0"
       cy="0"
       r="1"
       gradientUnits="userSpaceOnUse"
       gradientTransform="matrix(23.597374,0.410165,0.410165,-23.597374,175.50977,242.05176)"
       spreadMethod="pad"
       id="radialGradient1053">
      <stop
         style="stop-opacity:1;stop-color:#ffffff"
         offset="0"
         id="stop1045" />
      <stop
         style="stop-opacity:1;stop-color:#ffffff"
         offset="0.133333"
         id="stop1047" />
      <stop
         style="stop-opacity:1;stop-color:#ffffff"
         offset="0.69688585"
         id="stop1049" />
      <stop
         style="stop-opacity:1;stop-color:#d7cec0"
         offset="1"
         id="stop1051" />
    </radialGradient>
    <radialGradient
       id="radialGradient6564"
       spreadMethod="pad"
       gradientTransform="matrix(39.390442,0,0,-39.390442,167.54346,261.15625)"
       gradientUnits="userSpaceOnUse"
       r="1"
       cy="0"
       cx="0"
       fy="0"
       fx="0">
      <stop
         id="stop6556"
         offset="0"
         style="stop-opacity:1;stop-color:#ef3620" />
      <stop
         id="stop6558"
         offset="0.515152"
         style="stop-opacity:1;stop-color:#e81d25" />
      <stop
         id="stop6560"
         offset="0.95485563"
         style="stop-opacity:1;stop-color:#d51d24" />
      <stop
         id="stop6562"
         offset="1"
         style="stop-opacity:1;stop-color:#d51d24" />
    </radialGradient>
    <radialGradient
       id="radialGradient6588"
       spreadMethod="pad"
       gradientTransform="matrix(23.597374,0.410165,0.410165,-23.597374,175.50977,242.05176)"
       gradientUnits="userSpaceOnUse"
       r="1"
       cy="0"
       cx="0"
       fy="0"
       fx="0">
      <stop
         id="stop6580"
         offset="0"
         style="stop-opacity:1;stop-color:#ffffff" />
      <stop
         id="stop6582"
         offset="0.133333"
         style="stop-opacity:1;stop-color:#ffffff" />
      <stop
         id="stop6584"
         offset="0.69688585"
         style="stop-opacity:1;stop-color:#ffffff" />
      <stop
         id="stop6586"
         offset="1"
         style="stop-opacity:1;stop-color:#d7cec0" />
    </radialGradient>
  </defs>
  <sodipodi:namedview
     id="base"
     pagecolor="#ffffff"
     bordercolor="#666666"
     borderopacity="1.0"
     inkscape:pageopacity="0.0"
     inkscape:pageshadow="2"
     inkscape:zoom="1.979899"
     inkscape:cx="38.553007"
     inkscape:cy="-38.079297"
     inkscape:document-units="mm"
     inkscape:current-layer="text7741"
     showgrid="false"
     units="px"
     inkscape:window-width="1920"
     inkscape:window-height="1057"
     inkscape:window-x="-8"
     inkscape:window-y="-8"
     inkscape:window-maximized="1" />
  <metadata
     id="metadata1348">
    <rdf:RDF>
      <cc:Work
         rdf:about="">
        <dc:format>image/svg+xml</dc:format>
        <dc:type
           rdf:resource="http://purl.org/dc/dcmitype/StillImage" />
        <dc:title></dc:title>
      </cc:Work>
    </rdf:RDF>
  </metadata>
  <g
     inkscape:label="Layer 1"
     inkscape:groupmode="layer"
     id="layer1"
     transform="translate(0,-280.2791)">
    <text
       xml:space="preserve"
       style="font-style:normal;font-variant:normal;font-weight:normal;font-stretch:normal;font-size:8.11388874px;line-height:9.99772263px;font-family:'Times New Roman';-inkscape-font-specification:'Times New Roman, ';font-variant-ligatures:normal;font-variant-caps:normal;font-variant-numeric:diagonal-fractions;font-feature-settings:normal;text-align:start;letter-spacing:0px;word-spacing:0px;writing-mode:lr-tb;text-anchor:start;fill:#000000;fill-opacity:1;stroke:none;stroke-width:0.26458332"
       x="52.785732"
       y="115.39035"
       id="text1411"><tspan
         sodipodi:role="line"
         id="tspan1409"
         x="52.785732"
         y="122.52009"
         style="font-style:normal;font-variant:normal;font-weight:normal;font-stretch:normal;font-family:'Times New Roman';-inkscape-font-specification:'Times New Roman, ';stroke-width:0.26458332" /></text>
    <text
       xml:space="preserve"
       style="font-style:normal;font-variant:normal;font-weight:normal;font-stretch:normal;font-size:8.11388874px;line-height:9.99772263px;font-family:'Times New Roman';-inkscape-font-specification:'Times New Roman, ';font-variant-ligatures:normal;font-variant-caps:normal;font-variant-numeric:diagonal-fractions;font-feature-settings:normal;text-align:start;letter-spacing:0px;word-spacing:0px;writing-mode:lr-tb;text-anchor:start;fill:#000000;fill-opacity:1;stroke:none;stroke-width:0.26458332"
       x="56.527504"
       y="114.72217"
       id="text1419"><tspan
         sodipodi:role="line"
         id="tspan1417"
         x="56.527504"
         y="121.85191"
         style="font-style:normal;font-variant:normal;font-weight:normal;font-stretch:normal;font-family:'Times New Roman';-inkscape-font-specification:'Times New Roman, ';stroke-width:0.26458332" /></text>
    <g
       id="g7406"
       transform="matrix(0.19445797,0,0,-0.19445797,-27.064855,336.64974)">
      <g
         id="g7370">
        <g
           id="g6544">
          <g
             id="g6546">
            <g
               id="g6552">
              <g
                 id="g6554">
                <path
                   inkscape:connector-curvature="0"
                   id="path6566"
                   style="fill:url(#radialGradient6564);stroke:none"
                   d="m 139.181,254.731 c 0,-19.413 15.743,-35.156 35.159,-35.156 v 0 c 19.411,0 35.153,15.743 35.153,35.156 v 0 c 0,19.417 -15.742,35.155 -35.153,35.155 v 0 c -19.416,0 -35.159,-15.738 -35.159,-35.155" />
              </g>
            </g>
          </g>
        </g>
        <g
           id="g6568">
          <g
             id="g6570">
            <g
               id="g6576">
              <g
                 id="g6578">
                <path
                   inkscape:connector-curvature="0"
                   id="path6590"
                   style="fill:url(#radialGradient6588);stroke:none"
                   d="m 169.756,246.218 c 2.805,-6.143 10.262,-6.979 14.154,-6.77 v 0 c -10.985,-6.407 -28.032,-1.667 -34.516,6.219 v 0 c 4.135,-9.746 13.797,-16.581 25.052,-16.581 v 0 c 14.584,0 26.485,11.466 27.18,25.876 v 0 l -0.005,0.056 c -8.241,-7.818 -22.804,-11.218 -31.865,-8.8" />
              </g>
            </g>
          </g>
        </g>
      </g>
      <g
         id="g7358">
        <g
           transform="translate(301.6084,249.8486)"
           id="g6600">
          <path
             inkscape:connector-curvature="0"
             id="path6602"
             style="fill:#ed1c24;fill-opacity:1;fill-rule:nonzero;stroke:none"
             d="m 0,0 c -0.136,-1.018 -0.387,-1.926 -0.76,-2.739 -0.368,-0.807 -0.892,-1.467 -1.561,-1.967 -0.665,-0.501 -1.54,-0.759 -2.634,-0.759 -1.056,0 -1.933,0.271 -2.61,0.8 -0.681,0.528 -1.216,1.198 -1.612,2.009 -0.395,0.811 -0.655,1.714 -0.796,2.719 -0.14,0.993 -0.201,1.976 -0.201,2.925 0,1.092 0.07,2.136 0.224,3.13 0.144,1.006 0.421,1.902 0.839,2.697 0.402,0.793 0.953,1.433 1.649,1.913 0.696,0.476 1.599,0.711 2.71,0.711 1.011,0 1.834,-0.235 2.471,-0.711 0.637,-0.48 1.136,-1.106 1.499,-1.89 C -0.419,8.051 -0.165,7.16 -0.023,6.159 0.119,5.158 0.194,4.132 0.194,3.072 0.194,2.039 0.124,1.013 0,0 M 3.496,15.948 C 2.979,16.096 2.488,16.034 2.024,15.781 1.555,15.523 1.274,15.18 1.164,14.755 1.044,14.328 1.118,13.894 1.385,13.444 1.505,13.211 1.713,13.001 2.014,12.8 2.31,12.604 2.459,12.495 2.459,12.495 2.605,12.241 2.481,12.033 2.081,11.842 1.464,11.694 0.969,11.591 0.583,11.541 c -0.518,0.32 -1.076,0.592 -1.68,0.805 -1.152,0.411 -2.414,0.619 -3.776,0.619 -1.415,0 -2.72,-0.231 -3.929,-0.696 -1.198,-0.477 -2.233,-1.128 -3.083,-1.962 -0.847,-0.836 -1.508,-1.847 -1.977,-3.034 -0.468,-1.184 -0.703,-2.488 -0.703,-3.919 0,-1.753 0.235,-3.277 0.703,-4.575 0.469,-1.29 1.111,-2.364 1.921,-3.216 0.802,-0.847 1.769,-1.483 2.883,-1.912 1.118,-0.427 2.331,-0.642 3.637,-0.642 1.508,0 2.873,0.221 4.099,0.676 1.224,0.459 2.28,1.132 3.157,2.028 0.879,0.883 1.558,1.988 2.029,3.31 0.475,1.312 0.712,2.817 0.712,4.514 0,1.522 -0.237,2.873 -0.712,4.044 -0.471,1.171 -1.134,2.151 -1.968,2.947 -0.111,0.105 -0.224,0.195 -0.336,0.287 0.628,0.071 1.176,0.197 1.615,0.369 0.846,0.348 1.413,0.911 1.675,1.7 0.226,0.686 0.206,1.324 -0.066,1.907 -0.275,0.586 -0.705,0.972 -1.288,1.157" />
        </g>
        <g
           transform="translate(237.1113,260.8701)"
           id="g6604">
          <path
             inkscape:connector-curvature="0"
             id="path6606"
             style="fill:#ed1c24;fill-opacity:1;fill-rule:nonzero;stroke:none"
             d="m 0,0 c -0.228,-0.78 -0.628,-1.42 -1.188,-1.912 -0.557,-0.484 -1.3,-0.837 -2.215,-1.052 -0.923,-0.208 -2.062,-0.316 -3.42,-0.316 -0.337,0 -0.574,0.034 -0.692,0.094 -0.129,0.06 -0.19,0.202 -0.19,0.416 v 9.573 c 0,0.877 0.184,1.439 0.522,1.718 0.348,0.266 1.065,0.407 2.155,0.407 1.974,0 3.369,-0.452 4.168,-1.352 C -0.04,6.67 0.362,5.11 0.362,2.92 0.362,1.758 0.244,0.777 0,0 M 4.254,6.803 C 3.755,7.732 3.095,8.476 2.27,9.05 c -0.823,0.576 -1.768,0.971 -2.846,1.207 -1.076,0.227 -2.172,0.346 -3.288,0.346 -1.004,0 -2.058,-0.035 -3.157,-0.105 -1.09,-0.065 -2.474,-0.115 -4.149,-0.142 -1.008,0 -1.888,0.04 -2.644,0.126 -0.76,0.078 -1.598,0.121 -2.54,0.121 -0.166,0 -0.291,-0.073 -0.38,-0.207 -0.084,-0.135 -0.132,-0.284 -0.132,-0.456 0,-0.171 0.048,-0.328 0.132,-0.465 0.089,-0.131 0.214,-0.202 0.38,-0.202 0.297,-0.027 0.623,-0.077 0.958,-0.14 0.338,-0.07 0.664,-0.142 0.958,-0.205 0.51,-0.109 0.906,-0.344 1.196,-0.705 0.291,-0.36 0.513,-0.801 0.664,-1.323 0.149,-0.515 0.242,-1.083 0.276,-1.693 0.031,-0.61 0.049,-1.221 0.049,-1.831 V -12.23 c 0,-0.831 -0.049,-1.503 -0.153,-2.005 -0.097,-0.504 -0.294,-0.91 -0.574,-1.216 -0.276,-0.303 -0.665,-0.531 -1.158,-0.674 -0.499,-0.145 -1.145,-0.258 -1.936,-0.339 -0.182,-0.027 -0.322,-0.113 -0.401,-0.26 -0.081,-0.147 -0.12,-0.303 -0.101,-0.477 0.009,-0.169 0.056,-0.315 0.142,-0.449 0.08,-0.136 0.199,-0.2 0.36,-0.2 0.985,0 1.988,0.052 3.016,0.17 1.027,0.095 2.074,0.159 3.133,0.159 1.011,0 2.051,-0.064 3.122,-0.159 1.074,-0.118 2.362,-0.17 3.865,-0.17 0.197,0 0.348,0.064 0.438,0.2 0.098,0.134 0.147,0.291 0.147,0.471 0,0.172 -0.043,0.344 -0.12,0.493 -0.081,0.147 -0.225,0.222 -0.431,0.222 -0.807,0.054 -1.503,0.158 -2.105,0.298 -0.596,0.145 -1.1,0.373 -1.507,0.694 -0.412,0.319 -0.708,0.766 -0.904,1.34 -0.184,0.569 -0.285,1.334 -0.285,2.29 v 6.11 c 0,0.388 0.061,0.615 0.19,0.71 0.118,0.089 0.328,0.13 0.61,0.13 1.671,0.052 3.237,0.226 4.681,0.525 1.453,0.291 2.71,0.757 3.78,1.396 1.071,0.636 1.905,1.47 2.519,2.496 0.617,1.033 0.923,2.324 0.923,3.887 0,1.341 -0.251,2.467 -0.744,3.391" />
        </g>
        <g
           transform="translate(264.2305,244.3018)"
           id="g6608">
          <path
             inkscape:connector-curvature="0"
             id="path6610"
             style="fill:#ed1c24;fill-opacity:1;fill-rule:nonzero;stroke:none"
             d="M 0,0 C -0.588,0.082 -1.049,0.204 -1.377,0.344 -1.714,0.488 -1.969,0.686 -2.154,0.952 -2.337,1.217 -2.455,1.571 -2.493,2.012 -2.527,2.457 -2.55,3.038 -2.55,3.777 v 7.719 c 0,2.093 -0.529,3.783 -1.573,5.076 -1.044,1.298 -2.748,1.94 -5.112,1.94 -1.063,0 -2.125,-0.258 -3.192,-0.78 -1.067,-0.525 -1.967,-1.263 -2.701,-2.215 -0.079,-0.14 -0.149,-0.14 -0.204,0 v 12 c 0,0.139 -0.038,0.268 -0.119,0.383 -0.082,0.123 -0.24,0.191 -0.478,0.191 -0.189,0 -0.533,-0.038 -1.023,-0.12 -0.488,-0.086 -1.051,-0.174 -1.682,-0.267 -0.624,-0.097 -1.291,-0.206 -1.982,-0.318 -0.694,-0.114 -1.345,-0.191 -1.962,-0.215 -0.158,0 -0.282,-0.072 -0.358,-0.206 -0.076,-0.136 -0.108,-0.284 -0.108,-0.456 0,-0.172 0.032,-0.328 0.108,-0.466 0.076,-0.131 0.184,-0.199 0.32,-0.199 0.775,-0.079 1.383,-0.197 1.837,-0.334 0.445,-0.145 0.78,-0.412 0.997,-0.801 0.217,-0.384 0.352,-0.942 0.423,-1.647 0.058,-0.717 0.088,-1.675 0.088,-2.874 V 3.777 c 0,-0.705 -0.025,-1.277 -0.068,-1.722 C -19.391,1.609 -19.493,1.248 -19.658,0.973 -19.82,0.694 -20.08,0.488 -20.442,0.344 -20.806,0.204 -21.294,0.082 -21.899,0 c -0.182,-0.024 -0.294,-0.095 -0.349,-0.217 -0.054,-0.129 -0.086,-0.268 -0.086,-0.42 0,-0.165 0.038,-0.299 0.106,-0.425 0.068,-0.118 0.161,-0.178 0.29,-0.178 0.63,0 1.353,0.045 2.163,0.146 0.802,0.093 1.652,0.141 2.556,0.141 0.836,0 1.639,-0.048 2.405,-0.141 0.773,-0.101 1.345,-0.146 1.713,-0.146 0.104,0 0.193,0.06 0.262,0.178 0.064,0.126 0.105,0.26 0.105,0.425 0,0.152 -0.041,0.291 -0.105,0.42 -0.069,0.122 -0.169,0.193 -0.305,0.217 -0.536,0.082 -0.947,0.204 -1.238,0.344 -0.294,0.144 -0.512,0.352 -0.653,0.644 -0.141,0.298 -0.227,0.69 -0.258,1.182 -0.022,0.488 -0.039,1.107 -0.039,1.858 v 7.382 c 0,0.391 0.098,0.861 0.297,1.383 0.196,0.529 0.495,1.026 0.899,1.499 0.398,0.466 0.908,0.863 1.537,1.204 0.621,0.342 1.383,0.509 2.279,0.509 0.827,0 1.494,-0.185 1.995,-0.544 0.5,-0.371 0.882,-0.844 1.153,-1.413 0.26,-0.569 0.441,-1.207 0.538,-1.897 0.092,-0.689 0.147,-1.383 0.147,-2.075 V 3.771 c 0,-0.704 -0.028,-1.278 -0.071,-1.72 C -6.596,1.609 -6.69,1.248 -6.835,0.973 -6.991,0.694 -7.24,0.488 -7.593,0.344 -7.949,0.204 -8.444,0.082 -9.084,0 -9.22,-0.024 -9.317,-0.095 -9.371,-0.217 -9.419,-0.346 -9.45,-0.485 -9.45,-0.637 c 0,-0.165 0.031,-0.299 0.099,-0.425 0.073,-0.118 0.142,-0.178 0.224,-0.178 0.614,0 1.354,0.045 2.215,0.146 0.863,0.093 1.745,0.141 2.646,0.141 0.828,0 1.642,-0.048 2.44,-0.141 0.791,-0.101 1.391,-0.146 1.783,-0.146 0.136,0 0.246,0.06 0.325,0.178 0.086,0.126 0.124,0.26 0.124,0.425 0,0.152 -0.031,0.291 -0.103,0.42 C 0.237,-0.095 0.136,-0.024 0,0" />
        </g>
        <g
           transform="translate(286.4551,245.0234)"
           id="g6612">
          <path
             inkscape:connector-curvature="0"
             id="path6614"
             style="fill:#ed1c24;fill-opacity:1;fill-rule:nonzero;stroke:none"
             d="m 0,0 c -0.748,0 -1.331,0.074 -1.749,0.217 -0.414,0.151 -0.724,0.427 -0.93,0.841 -0.203,0.406 -0.329,0.964 -0.375,1.683 -0.05,0.717 -0.072,1.632 -0.072,2.765 V 15.56 c 1.137,0.031 2.048,0.173 2.732,0.449 0.848,0.348 1.409,0.911 1.682,1.7 0.22,0.687 0.197,1.324 -0.074,1.907 -0.274,0.586 -0.7,0.972 -1.286,1.157 -0.52,0.148 -1.013,0.086 -1.479,-0.167 -0.465,-0.257 -0.748,-0.601 -0.849,-1.026 -0.124,-0.427 -0.054,-0.861 0.216,-1.31 0.114,-0.234 0.329,-0.444 0.629,-0.645 0.296,-0.196 0.446,-0.305 0.446,-0.305 0.149,-0.254 0.024,-0.462 -0.382,-0.653 -0.693,-0.168 -1.235,-0.273 -1.635,-0.316 v 0.282 c 0,0.239 -0.063,0.452 -0.181,0.617 -0.124,0.179 -0.302,0.255 -0.536,0.255 -0.444,0 -1.166,-0.109 -2.156,-0.346 -0.972,-0.23 -2.205,-0.39 -3.697,-0.492 -0.152,0 -0.258,-0.053 -0.33,-0.165 -0.066,-0.098 -0.102,-0.233 -0.102,-0.385 0,-0.174 0.043,-0.341 0.117,-0.497 0.071,-0.158 0.179,-0.248 0.315,-0.275 0.669,-0.093 1.175,-0.213 1.532,-0.349 0.352,-0.136 0.61,-0.386 0.777,-0.755 0.161,-0.37 0.254,-0.892 0.279,-1.594 0.029,-0.691 0.043,-1.651 0.043,-2.872 V 3.185 C -7.065,3.056 -7.077,2.884 -7.079,2.671 -7.102,2.456 -7.145,2.298 -7.226,2.222 -7.757,1.751 -8.541,1.333 -9.569,0.994 -10.585,0.673 -11.57,0.508 -12.52,0.508 c -0.682,0 -1.243,0.111 -1.681,0.337 -0.443,0.223 -0.791,0.576 -1.037,1.08 -0.251,0.495 -0.43,1.131 -0.523,1.924 -0.093,0.773 -0.137,1.726 -0.137,2.843 v 10.022 c 0,0.199 -0.057,0.385 -0.167,0.547 -0.107,0.168 -0.308,0.244 -0.6,0.244 -0.228,0 -0.537,-0.026 -0.917,-0.086 -0.389,-0.063 -0.861,-0.153 -1.436,-0.26 -1.105,-0.23 -2.357,-0.39 -3.765,-0.492 -0.147,0 -0.256,-0.062 -0.321,-0.19 -0.075,-0.131 -0.106,-0.271 -0.106,-0.414 0,-0.183 0.036,-0.341 0.112,-0.498 0.077,-0.146 0.184,-0.22 0.315,-0.22 0.669,-0.093 1.193,-0.213 1.587,-0.349 0.386,-0.136 0.679,-0.386 0.885,-0.755 0.2,-0.37 0.329,-0.892 0.389,-1.594 0.05,-0.691 0.079,-1.651 0.079,-2.872 V 5.056 c 0,-1.153 0.095,-2.184 0.285,-3.083 0.195,-0.893 0.525,-1.648 0.999,-2.263 0.482,-0.612 1.135,-1.075 1.964,-1.401 0.83,-0.314 1.888,-0.475 3.185,-0.475 0.976,0 1.991,0.177 3.031,0.514 1.04,0.352 2.077,0.963 3.114,1.853 0.053,0.05 0.105,0.076 0.157,0.059 0.051,-0.009 0.084,-0.048 0.084,-0.1 0,-1.551 0.248,-2.326 0.758,-2.326 0.17,0 0.423,0.017 0.742,0.062 0.321,0.041 0.68,0.089 1.074,0.142 0.39,0.054 0.804,0.119 1.248,0.178 0.431,0.072 0.858,0.132 1.261,0.197 0.411,0.064 0.782,0.129 1.128,0.179 0.332,0.069 0.605,0.112 0.813,0.162 0.136,0.027 0.23,0.098 0.292,0.222 0.061,0.122 0.093,0.259 0.093,0.407 0,0.149 -0.032,0.289 -0.1,0.416 C 0.217,-0.068 0.12,0 0,0" />
        </g>
        <g
           transform="translate(329.3301,243.665)"
           id="g6616">
          <path
             inkscape:connector-curvature="0"
             id="path6618"
             style="fill:#ed1c24;fill-opacity:1;fill-rule:nonzero;stroke:none"
             d="m 0,0 c 0,0.151 -0.041,0.291 -0.095,0.42 -0.072,0.122 -0.176,0.192 -0.307,0.217 -0.581,0.082 -1.035,0.204 -1.372,0.359 -0.337,0.158 -0.585,0.38 -0.76,0.676 -0.178,0.294 -0.291,0.681 -0.346,1.15 -0.054,0.478 -0.081,1.092 -0.081,1.843 v 7.138 c 0,2.583 -0.547,4.457 -1.65,5.619 -1.099,1.157 -2.622,1.726 -4.583,1.726 -0.824,0 -1.583,-0.13 -2.299,-0.404 -0.722,-0.276 -1.348,-0.608 -1.895,-0.992 -0.538,-0.405 -1.006,-0.818 -1.394,-1.241 -0.389,-0.434 -0.676,-0.814 -0.865,-1.153 -0.03,-0.056 -0.06,-0.082 -0.098,-0.082 -0.038,0 -0.066,0.026 -0.066,0.082 0,0.133 0.028,0.332 0.066,0.599 0.038,0.262 0.086,0.545 0.141,0.836 0.053,0.294 0.096,0.552 0.141,0.775 0.036,0.229 0.06,0.369 0.06,0.423 0,0.26 -0.067,0.466 -0.186,0.628 -0.118,0.168 -0.335,0.244 -0.644,0.244 -0.298,0 -0.988,-0.108 -2.062,-0.334 -1.075,-0.221 -2.404,-0.393 -3.976,-0.504 -0.108,0 -0.192,-0.061 -0.246,-0.197 -0.047,-0.14 -0.079,-0.275 -0.079,-0.416 0,-0.146 0.032,-0.289 0.102,-0.42 0.072,-0.14 0.185,-0.206 0.344,-0.206 0.753,-0.024 1.319,-0.155 1.702,-0.377 0.382,-0.226 0.664,-0.603 0.844,-1.133 0.186,-0.531 0.281,-1.247 0.292,-2.156 0.016,-0.901 0.023,-2.05 0.023,-3.439 V 4.414 c 0,-0.705 -0.019,-1.277 -0.043,-1.723 -0.024,-0.445 -0.124,-0.795 -0.289,-1.066 -0.172,-0.26 -0.435,-0.468 -0.81,-0.606 -0.366,-0.147 -0.887,-0.271 -1.554,-0.382 -0.165,-0.025 -0.279,-0.102 -0.346,-0.241 -0.068,-0.141 -0.1,-0.279 -0.1,-0.419 0,-0.142 0.032,-0.276 0.1,-0.403 0.067,-0.117 0.165,-0.178 0.303,-0.178 0.722,0 1.48,0.045 2.271,0.147 0.796,0.093 1.637,0.141 2.527,0.141 0.418,0 0.877,-0.021 1.368,-0.064 0.492,-0.046 0.966,-0.077 1.424,-0.124 0.459,-0.039 0.854,-0.066 1.202,-0.1 0.341,-0.027 0.579,-0.041 0.71,-0.041 0.146,0 0.261,0.059 0.337,0.181 0.089,0.127 0.128,0.267 0.128,0.414 0,0.162 -0.032,0.298 -0.108,0.42 -0.06,0.127 -0.179,0.204 -0.357,0.231 -1.032,0.154 -1.773,0.524 -2.213,1.103 -0.446,0.565 -0.664,1.546 -0.664,2.952 v 5.75 c 0,2.002 0.442,3.553 1.333,4.626 0.888,1.072 2.163,1.61 3.803,1.61 0.834,0 1.475,-0.185 1.924,-0.544 0.447,-0.371 0.791,-0.835 1.025,-1.391 0.232,-0.562 0.368,-1.178 0.406,-1.881 0.038,-0.693 0.061,-1.381 0.061,-2.072 V 4.407 C -6.851,3.756 -6.862,3.214 -6.89,2.791 -6.917,2.363 -7.009,2.002 -7.16,1.733 -7.318,1.455 -7.54,1.229 -7.846,1.051 -8.146,0.888 -8.571,0.748 -9.122,0.637 -9.28,0.607 -9.39,0.526 -9.443,0.396 -9.502,0.255 -9.514,0.117 -9.505,-0.023 c 0.014,-0.142 0.055,-0.276 0.118,-0.403 0.064,-0.117 0.176,-0.178 0.325,-0.178 0.509,0 1.135,0.045 1.863,0.147 0.73,0.093 1.539,0.141 2.421,0.141 0.825,0 1.67,-0.048 2.534,-0.141 0.865,-0.102 1.477,-0.147 1.842,-0.147 0.131,0 0.235,0.061 0.307,0.178 C -0.041,-0.299 0,-0.165 0,0" />
        </g>
        <g
           transform="translate(341.8545,251.04)"
           id="g6620">
          <path
             inkscape:connector-curvature="0"
             id="path6622"
             style="fill:#ed1c24;fill-opacity:1;fill-rule:nonzero;stroke:none"
             d="m 0,0 c -0.62,-0.954 -1.655,-1.427 -3.097,-1.427 -1.229,0 -2.163,0.473 -2.807,1.427 -0.647,0.953 -0.97,2.346 -0.97,4.179 0,0.703 0.055,1.408 0.172,2.13 0.12,0.722 0.33,1.376 0.631,1.957 0.313,0.578 0.732,1.071 1.279,1.451 0.547,0.382 1.261,0.569 2.141,0.569 0.72,0 1.315,-0.144 1.776,-0.438 C -0.409,9.559 -0.039,9.143 0.241,8.594 0.52,8.053 0.707,7.393 0.802,6.645 0.896,5.89 0.937,5.056 0.937,4.146 0.937,2.335 0.63,0.953 0,0 m -7.118,-9.902 c 1.697,-0.064 3.284,-0.157 4.764,-0.286 1.477,-0.117 2.758,-0.338 3.852,-0.641 1.08,-0.305 1.94,-0.734 2.567,-1.277 0.626,-0.549 0.941,-1.239 0.941,-2.1 0,-0.681 -0.167,-1.319 -0.499,-1.917 -0.337,-0.601 -0.808,-1.111 -1.404,-1.539 -0.597,-0.434 -1.313,-0.771 -2.147,-1.022 -0.844,-0.246 -1.75,-0.375 -2.73,-0.375 -0.801,0 -1.61,0.111 -2.413,0.351 -0.813,0.239 -1.547,0.594 -2.214,1.066 -0.667,0.466 -1.209,1.058 -1.637,1.752 -0.42,0.699 -0.631,1.533 -0.631,2.48 0,0.641 0.139,1.297 0.419,1.984 0.28,0.676 0.655,1.187 1.132,1.524 M 9.791,11.019 C 9.475,11.168 9.122,11.273 8.756,11.326 8.381,11.38 8.039,11.412 7.716,11.412 6.832,11.412 6.03,11.225 5.302,10.871 4.572,10.503 3.943,10.063 3.408,9.536 2.689,10.193 1.894,10.74 1.012,11.154 c -0.877,0.411 -2.054,0.619 -3.539,0.619 -1.307,0 -2.5,-0.18 -3.59,-0.54 -1.089,-0.357 -2.018,-0.856 -2.779,-1.516 -0.765,-0.654 -1.355,-1.451 -1.773,-2.378 -0.418,-0.936 -0.64,-1.974 -0.64,-3.11 0,-1.682 0.41,-3.011 1.221,-4 0.809,-0.996 1.928,-1.764 3.355,-2.311 0.026,0 0.043,-0.016 0.043,-0.052 0,-0.029 -0.017,-0.052 -0.043,-0.052 -0.581,-0.027 -1.181,-0.108 -1.785,-0.244 -0.6,-0.135 -1.147,-0.355 -1.628,-0.665 -0.482,-0.301 -0.874,-0.7 -1.167,-1.19 -0.293,-0.491 -0.439,-1.112 -0.439,-1.857 0,-0.504 0.091,-0.937 0.261,-1.299 0.182,-0.36 0.404,-0.669 0.666,-0.94 0.264,-0.265 0.57,-0.491 0.9,-0.672 0.334,-0.185 0.671,-0.33 1.005,-0.438 -0.47,-0.16 -0.937,-0.396 -1.39,-0.703 -0.462,-0.305 -0.863,-0.685 -1.215,-1.121 -0.358,-0.429 -0.642,-0.915 -0.862,-1.46 -0.217,-0.545 -0.325,-1.132 -0.325,-1.779 0,-1.11 0.248,-2.073 0.743,-2.875 0.497,-0.807 1.205,-1.465 2.112,-1.985 0.918,-0.515 2.003,-0.899 3.27,-1.148 1.266,-0.255 2.683,-0.379 4.242,-0.379 1.759,0 3.314,0.203 4.673,0.601 1.364,0.406 2.52,0.946 3.451,1.632 0.936,0.683 1.643,1.484 2.116,2.382 0.465,0.918 0.703,1.86 0.703,2.852 0,1.347 -0.279,2.451 -0.839,3.3 -0.556,0.846 -1.316,1.524 -2.277,2.012 -0.958,0.504 -2.074,0.868 -3.355,1.094 -1.277,0.219 -2.634,0.378 -4.064,0.457 -0.828,0.051 -1.594,0.119 -2.31,0.194 -0.719,0.072 -1.345,0.179 -1.89,0.314 -0.547,0.14 -0.969,0.317 -1.277,0.525 -0.308,0.205 -0.461,0.472 -0.461,0.802 0,0.424 0.172,0.755 0.518,0.988 0.347,0.237 0.775,0.423 1.279,0.549 0.504,0.118 1.023,0.192 1.551,0.226 0.531,0.036 0.964,0.052 1.305,0.052 1.171,0 2.27,0.165 3.294,0.506 1.031,0.328 1.946,0.811 2.741,1.463 C 3.604,-0.364 4.23,0.43 4.686,1.358 5.15,2.296 5.37,3.365 5.37,4.593 5.345,5.26 5.243,5.922 5.067,6.584 4.893,7.242 4.604,7.868 4.208,8.458 4.425,8.799 4.764,9.098 5.205,9.314 5.661,9.543 6.109,9.655 6.555,9.655 6.977,9.655 7.244,9.543 7.353,9.314 7.461,9.098 7.558,8.86 7.64,8.604 7.716,8.352 7.85,8.116 8.017,7.901 8.18,7.685 8.536,7.574 9.065,7.574 c 0.726,0 1.207,0.19 1.462,0.565 0.249,0.369 0.378,0.791 0.378,1.272 0,0.409 -0.106,0.735 -0.323,0.988 -0.208,0.251 -0.473,0.456 -0.791,0.62" />
        </g>
        <g
           transform="translate(383.2461,251.7969)"
           id="g6624">
          <path
             inkscape:connector-curvature="0"
             id="path6626"
             style="fill:#ed1c24;fill-opacity:1;fill-rule:nonzero;stroke:none"
             d="M 0,0 C -0.425,-1.489 -1.008,-2.734 -1.768,-3.754 -2.524,-4.778 -3.42,-5.547 -4.457,-6.071 -5.499,-6.6 -6.646,-6.859 -7.906,-6.859 c -1.14,0 -2.055,0.06 -2.736,0.182 -0.691,0.12 -1.222,0.391 -1.586,0.814 -0.364,0.423 -0.61,1.042 -0.721,1.876 -0.117,0.818 -0.179,1.919 -0.179,3.316 v 5.02 h 4.837 c 0.486,0 0.877,0.427 0.877,0.949 0,0.524 -0.391,0.956 -0.877,0.956 h -4.837 v 10.057 c 0,0.543 0.115,0.913 0.34,1.111 0.225,0.197 0.609,0.292 1.152,0.292 2.303,0 4.229,-0.272 5.793,-0.82 1.567,-0.557 2.834,-1.362 3.788,-2.423 0.963,-1.063 1.653,-2.376 2.062,-3.954 C 0.421,8.948 0.633,7.145 0.633,5.097 0.633,3.178 0.421,1.48 0,0 m 1.501,15.551 c -1.41,1.293 -3.081,2.307 -4.998,3.033 -1.93,0.728 -4.036,1.092 -6.319,1.092 -1.164,0 -2.288,-0.026 -3.391,-0.086 -1.105,-0.045 -2.237,-0.075 -3.39,-0.075 -0.502,0 -0.974,0.005 -1.418,0.011 -0.44,0.019 -0.853,0.041 -1.236,0.064 -0.377,0.029 -0.779,0.052 -1.193,0.06 -0.416,0.017 -0.855,0.026 -1.338,0.026 -0.172,0 -0.308,-0.075 -0.389,-0.215 -0.081,-0.138 -0.117,-0.296 -0.117,-0.459 0,-0.16 0.036,-0.316 0.117,-0.454 0.081,-0.131 0.217,-0.199 0.389,-0.199 0.877,-0.05 1.573,-0.212 2.104,-0.47 0.53,-0.26 0.949,-0.633 1.252,-1.121 0.292,-0.473 0.497,-1.068 0.595,-1.773 0.108,-0.698 0.151,-1.518 0.151,-2.459 V 6.254 h -3.065 c -0.472,0 -0.87,-0.432 -0.87,-0.956 0,-0.522 0.398,-0.949 0.87,-0.949 h 3.065 v -7.92 c 0,-0.721 -0.065,-1.311 -0.208,-1.765 -0.149,-0.457 -0.375,-0.821 -0.68,-1.105 -0.307,-0.279 -0.697,-0.489 -1.166,-0.636 -0.482,-0.14 -1.056,-0.26 -1.723,-0.353 -0.21,-0.033 -0.368,-0.108 -0.456,-0.237 -0.086,-0.138 -0.124,-0.275 -0.124,-0.427 0,-0.185 0.045,-0.359 0.158,-0.522 0.104,-0.162 0.251,-0.226 0.422,-0.201 0.559,0.054 1.069,0.099 1.533,0.149 0.463,0.052 0.917,0.091 1.356,0.11 0.445,0.026 0.902,0.046 1.368,0.073 0.47,0.02 1.003,0.037 1.606,0.037 0.952,0 2.014,-0.064 3.192,-0.158 1.182,-0.119 2.398,-0.17 3.666,-0.17 2.082,0 4.021,0.285 5.816,0.842 1.801,0.566 3.354,1.42 4.674,2.568 1.324,1.141 2.357,2.577 3.1,4.32 0.75,1.729 1.122,3.763 1.122,6.1 0,2.127 -0.395,4.085 -1.18,5.877 -0.795,1.79 -1.89,3.329 -3.295,4.62" />
        </g>
        <g
           transform="translate(404.9443,249.8486)"
           id="g6628">
          <path
             inkscape:connector-curvature="0"
             id="path6630"
             style="fill:#ed1c24;fill-opacity:1;fill-rule:nonzero;stroke:none"
             d="m 0,0 c -0.126,-1.018 -0.373,-1.926 -0.748,-2.739 -0.38,-0.807 -0.898,-1.467 -1.562,-1.967 -0.667,-0.501 -1.548,-0.759 -2.633,-0.759 -1.06,0 -1.93,0.271 -2.616,0.8 -0.677,0.528 -1.215,1.198 -1.608,2.009 -0.396,0.811 -0.663,1.714 -0.794,2.719 -0.14,0.993 -0.212,1.976 -0.212,2.925 0,1.092 0.076,2.136 0.228,3.13 0.147,1.006 0.434,1.902 0.837,2.697 0.409,0.793 0.953,1.433 1.652,1.913 0.693,0.476 1.598,0.711 2.714,0.711 1.009,0 1.831,-0.235 2.469,-0.711 0.641,-0.48 1.145,-1.106 1.501,-1.89 C -0.411,8.051 -0.162,7.16 -0.011,6.159 0.131,5.158 0.194,4.132 0.194,3.072 0.194,2.039 0.131,1.013 0,0 m 1.898,10.528 c -0.836,0.793 -1.828,1.404 -2.987,1.818 -1.153,0.411 -2.421,0.619 -3.772,0.619 -1.413,0 -2.731,-0.231 -3.929,-0.696 -1.212,-0.477 -2.233,-1.128 -3.083,-1.962 -0.856,-0.836 -1.519,-1.847 -1.984,-3.034 -0.47,-1.184 -0.699,-2.488 -0.699,-3.919 0,-1.753 0.229,-3.277 0.699,-4.575 0.465,-1.29 1.109,-2.364 1.923,-3.216 0.809,-0.847 1.768,-1.483 2.884,-1.912 1.116,-0.427 2.33,-0.642 3.637,-0.642 1.51,0 2.88,0.221 4.106,0.676 1.219,0.459 2.268,1.132 3.149,2.028 0.88,0.883 1.551,1.988 2.025,3.31 0.48,1.312 0.719,2.817 0.719,4.514 0,1.522 -0.239,2.873 -0.719,4.044 -0.474,1.171 -1.125,2.151 -1.969,2.947" />
        </g>
        <g
           transform="translate(432.6709,243.2393)"
           id="g6632">
          <path
             inkscape:connector-curvature="0"
             id="path6634"
             style="fill:#ed1c24;fill-opacity:1;fill-rule:nonzero;stroke:none"
             d="m 0,0 c 0.07,0.127 0.102,0.261 0.102,0.426 0,0.151 -0.032,0.291 -0.102,0.42 -0.061,0.122 -0.167,0.192 -0.303,0.216 -0.588,0.083 -1.042,0.205 -1.389,0.36 -0.34,0.158 -0.595,0.38 -0.779,0.676 -0.169,0.294 -0.291,0.68 -0.342,1.15 -0.053,0.478 -0.084,1.092 -0.084,1.843 v 7.138 c 0,2.583 -0.549,4.457 -1.662,5.619 -1.121,1.157 -2.671,1.726 -4.654,1.726 -0.829,0 -1.6,-0.131 -2.332,-0.404 -0.73,-0.276 -1.365,-0.608 -1.917,-0.992 -0.552,-0.406 -1.024,-0.819 -1.408,-1.241 -0.407,-0.434 -0.694,-0.814 -0.884,-1.153 -0.027,-0.056 -0.06,-0.082 -0.1,-0.082 -0.042,0 -0.058,0.026 -0.058,0.082 0,0.133 0.016,0.332 0.058,0.599 0.04,0.262 0.086,0.545 0.138,0.836 0.06,0.294 0.103,0.552 0.148,0.775 0.041,0.229 0.056,0.369 0.056,0.423 0,0.26 -0.058,0.466 -0.18,0.628 -0.122,0.168 -0.344,0.244 -0.659,0.244 -0.302,0 -1.003,-0.108 -2.09,-0.334 -1.092,-0.222 -2.435,-0.393 -4.033,-0.504 -0.103,0 -0.185,-0.061 -0.244,-0.197 -0.05,-0.14 -0.077,-0.275 -0.077,-0.416 0,-0.147 0.034,-0.289 0.103,-0.42 0.067,-0.141 0.184,-0.206 0.345,-0.206 0.762,-0.025 1.336,-0.155 1.722,-0.377 0.394,-0.227 0.674,-0.604 0.859,-1.133 0.186,-0.531 0.279,-1.247 0.294,-2.156 0.014,-0.901 0.027,-2.05 0.027,-3.44 V 4.84 c 0,-0.705 -0.013,-1.277 -0.045,-1.723 -0.03,-0.445 -0.122,-0.795 -0.296,-1.066 -0.172,-0.26 -0.443,-0.468 -0.818,-0.607 -0.374,-0.146 -0.895,-0.27 -1.576,-0.382 -0.167,-0.024 -0.28,-0.101 -0.347,-0.241 -0.071,-0.14 -0.11,-0.278 -0.11,-0.419 0,-0.141 0.039,-0.275 0.11,-0.402 0.067,-0.117 0.162,-0.178 0.306,-0.178 0.733,0 1.501,0.045 2.306,0.147 0.805,0.093 1.654,0.14 2.561,0.14 0.42,0 0.879,-0.02 1.378,-0.063 0.504,-0.046 0.982,-0.077 1.445,-0.124 0.461,-0.039 0.873,-0.067 1.214,-0.1 0.352,-0.027 0.592,-0.041 0.727,-0.041 0.145,0 0.268,0.059 0.349,0.181 0.079,0.127 0.117,0.267 0.117,0.414 0,0.162 -0.031,0.298 -0.097,0.42 -0.065,0.127 -0.199,0.204 -0.369,0.23 -1.051,0.155 -1.801,0.525 -2.244,1.104 -0.454,0.564 -0.678,1.546 -0.678,2.952 v 5.75 c 0,2.002 0.454,3.553 1.356,4.626 0.907,1.071 2.195,1.609 3.863,1.609 0.836,0 1.487,-0.184 1.941,-0.544 0.455,-0.371 0.803,-0.835 1.042,-1.39 0.233,-0.563 0.378,-1.178 0.416,-1.881 0.039,-0.693 0.059,-1.381 0.059,-2.072 V 4.833 C -6.835,4.182 -6.842,3.64 -6.873,3.217 -6.898,2.789 -6.991,2.428 -7.149,2.159 -7.31,1.881 -7.538,1.655 -7.843,1.477 -8.152,1.313 -8.58,1.174 -9.134,1.062 -9.306,1.033 -9.414,0.952 -9.468,0.821 -9.522,0.681 -9.545,0.543 -9.526,0.402 -9.514,0.261 -9.473,0.127 -9.409,0 c 0.074,-0.117 0.18,-0.178 0.327,-0.178 0.518,0 1.146,0.045 1.895,0.147 0.734,0.093 1.561,0.14 2.455,0.14 0.834,0 1.681,-0.047 2.553,-0.14 0.889,-0.102 1.508,-0.147 1.876,-0.147 0.136,0 0.242,0.061 0.303,0.178" />
        </g>
        <g
           transform="translate(445.2061,251.04)"
           id="g6636">
          <path
             inkscape:connector-curvature="0"
             id="path6638"
             style="fill:#ed1c24;fill-opacity:1;fill-rule:nonzero;stroke:none"
             d="m 0,0 c -0.635,-0.954 -1.663,-1.427 -3.105,-1.427 -1.221,0 -2.164,0.473 -2.807,1.427 -0.647,0.953 -0.97,2.346 -0.97,4.179 0,0.703 0.064,1.408 0.176,2.13 0.115,0.722 0.326,1.376 0.631,1.957 0.307,0.578 0.73,1.071 1.277,1.451 0.544,0.382 1.254,0.569 2.138,0.569 0.725,0 1.32,-0.144 1.786,-0.438 C -0.418,9.559 -0.05,9.143 0.233,8.594 0.509,8.053 0.699,7.393 0.791,6.645 0.882,5.89 0.938,5.056 0.938,4.146 0.938,2.335 0.622,0.953 0,0 m -7.122,-9.902 c 1.695,-0.064 3.284,-0.157 4.758,-0.286 1.478,-0.117 2.758,-0.338 3.854,-0.641 1.089,-0.305 1.942,-0.734 2.57,-1.277 0.624,-0.549 0.942,-1.239 0.942,-2.1 0,-0.681 -0.172,-1.319 -0.504,-1.917 -0.332,-0.601 -0.798,-1.111 -1.401,-1.539 -0.599,-0.434 -1.314,-0.771 -2.154,-1.022 -0.834,-0.246 -1.741,-0.375 -2.721,-0.375 -0.803,0 -1.61,0.111 -2.421,0.351 -0.81,0.239 -1.551,0.594 -2.213,1.066 -0.667,0.466 -1.211,1.058 -1.632,1.752 -0.416,0.699 -0.633,1.533 -0.633,2.48 0,0.641 0.136,1.297 0.416,1.984 0.279,0.676 0.656,1.187 1.139,1.524 m 17.7,20.301 c -0.205,0.251 -0.476,0.456 -0.798,0.62 -0.323,0.149 -0.664,0.254 -1.039,0.307 -0.373,0.054 -0.715,0.086 -1.029,0.086 -0.884,0 -1.691,-0.187 -2.418,-0.541 -0.731,-0.368 -1.354,-0.808 -1.89,-1.335 -0.72,0.657 -1.523,1.204 -2.393,1.618 -0.886,0.411 -2.064,0.619 -3.544,0.619 -1.305,0 -2.502,-0.18 -3.592,-0.54 -1.09,-0.357 -2.016,-0.856 -2.777,-1.516 -0.765,-0.654 -1.357,-1.451 -1.78,-2.378 -0.422,-0.936 -0.632,-1.974 -0.632,-3.11 0,-1.682 0.407,-3.011 1.218,-4 0.811,-0.996 1.93,-1.764 3.359,-2.311 0.022,0 0.038,-0.016 0.038,-0.052 0,-0.029 -0.016,-0.052 -0.038,-0.052 -0.59,-0.027 -1.183,-0.108 -1.793,-0.244 -0.597,-0.135 -1.151,-0.355 -1.627,-0.665 -0.482,-0.301 -0.868,-0.7 -1.164,-1.19 -0.292,-0.491 -0.441,-1.112 -0.441,-1.857 0,-0.504 0.093,-0.937 0.271,-1.299 0.177,-0.36 0.395,-0.669 0.658,-0.94 0.265,-0.265 0.567,-0.491 0.904,-0.672 0.33,-0.185 0.669,-0.33 1.003,-0.438 -0.471,-0.16 -0.944,-0.396 -1.394,-0.703 -0.454,-0.305 -0.866,-0.685 -1.213,-1.121 -0.363,-0.429 -0.645,-0.915 -0.862,-1.46 -0.221,-0.545 -0.323,-1.132 -0.323,-1.779 0,-1.11 0.248,-2.073 0.745,-2.875 0.498,-0.807 1.199,-1.465 2.108,-1.985 0.92,-0.515 2.002,-0.899 3.27,-1.148 1.261,-0.255 2.674,-0.379 4.242,-0.379 1.759,0 3.314,0.203 4.677,0.601 1.356,0.406 2.506,0.946 3.451,1.632 0.938,0.683 1.639,1.484 2.112,2.382 0.463,0.918 0.703,1.86 0.703,2.852 0,1.347 -0.278,2.451 -0.835,3.3 -0.561,0.846 -1.322,1.524 -2.28,2.012 -0.956,0.504 -2.078,0.868 -3.357,1.094 -1.279,0.219 -2.629,0.378 -4.056,0.457 -0.831,0.051 -1.608,0.119 -2.322,0.194 -0.715,0.072 -1.341,0.179 -1.886,0.314 -0.546,0.14 -0.971,0.317 -1.274,0.525 -0.308,0.205 -0.459,0.472 -0.459,0.802 0,0.424 0.167,0.755 0.52,0.988 0.345,0.237 0.768,0.423 1.272,0.549 0.505,0.118 1.02,0.192 1.551,0.226 0.531,0.036 0.97,0.052 1.305,0.052 1.168,0 2.273,0.165 3.297,0.506 1.031,0.328 1.939,0.811 2.735,1.463 0.796,0.628 1.422,1.422 1.876,2.35 C 5.138,2.296 5.364,3.365 5.364,4.593 5.339,5.26 5.235,5.922 5.057,6.584 4.88,7.242 4.6,7.868 4.2,8.458 4.422,8.799 4.751,9.098 5.203,9.314 5.651,9.543 6.104,9.655 6.551,9.655 6.974,9.655 7.233,9.543 7.353,9.314 7.455,9.098 7.55,8.86 7.629,8.604 7.712,8.352 7.837,8.116 8.011,7.901 8.178,7.685 8.528,7.574 9.055,7.574 c 0.725,0 1.207,0.19 1.466,0.565 0.248,0.369 0.372,0.791 0.372,1.272 0,0.409 -0.104,0.735 -0.315,0.988" />
        </g>
        <g
           transform="translate(395.8311,265.2227)"
           id="g6640">
          <path
             inkscape:connector-curvature="0"
             id="path6642"
             style="fill:#ed1c24;fill-opacity:1;fill-rule:nonzero;stroke:none"
             d="M 0,0 C 0.093,-0.083 0.197,-0.14 0.316,-0.169 0.432,-0.196 0.536,-0.176 0.617,-0.09 1.198,0.4 1.754,0.887 2.292,1.386 2.828,1.886 3.303,2.347 3.711,2.778 4.266,2.227 4.79,1.7 5.298,1.214 5.802,0.722 6.365,0.249 6.976,-0.217 7.07,-0.275 7.179,-0.287 7.303,-0.26 7.434,-0.23 7.574,-0.169 7.71,-0.072 7.856,0.017 7.992,0.132 8.121,0.256 8.248,0.373 8.352,0.516 8.436,0.649 8.517,0.78 8.566,0.899 8.587,1.021 8.604,1.138 8.578,1.229 8.494,1.284 7.82,1.84 7.206,2.383 6.641,2.911 6.078,3.447 5.492,4.017 4.878,4.627 4.733,4.778 4.572,4.844 4.39,4.844 4.188,4.844 4.015,4.763 3.852,4.6 3.205,3.929 2.552,3.241 1.896,2.541 1.238,1.836 0.562,1.183 -0.106,0.567 -0.203,0.488 -0.229,0.389 -0.192,0.287 -0.153,0.179 -0.088,0.086 0,0" />
        </g>
      </g>
    </g>
    <g
       aria-label="Phục vụ bệnh nhân kịp thời là ưu tiên số 1."
       style="font-style:normal;font-variant:normal;font-weight:normal;font-stretch:normal;font-size:2.95979452px;line-height:1.25;font-family:Garamond;-inkscape-font-specification:Garamond;letter-spacing:0px;word-spacing:0px;fill:#666666;fill-opacity:1;stroke:none;stroke-width:0.1009021"
       id="text7741">
      <path
         d="m 16.726207,295.53789 -0.151581,0.52089 q -0.03169,0.11024 -0.03169,0.15572 0,0.0634 0.04134,0.0965 0.04134,0.0317 0.18741,0.0344 l -0.01791,0.051 h -0.912244 l 0.01516,-0.051 q 0.115753,-0.001 0.163984,-0.0221 0.04823,-0.022 0.07992,-0.0703 0.02343,-0.0317 0.07028,-0.1943 l 0.345881,-1.18647 q 0.03583,-0.11851 0.03583,-0.16949 0,-0.051 -0.04547,-0.0854 -0.04547,-0.0358 -0.165361,-0.0386 l 0.01516,-0.051 h 0.739993 q 0.30454,0 0.438207,0.0772 0.206702,0.12126 0.206702,0.36379 0,0.23426 -0.206702,0.41341 -0.205323,0.17776 -0.553961,0.17776 -0.104728,0 -0.254932,-0.022 z m 0.02756,-0.10611 q 0.08957,0.011 0.148826,0.011 0.190165,0 0.299028,-0.17363 0.108863,-0.17363 0.108863,-0.36242 0,-0.12815 -0.07028,-0.19843 -0.07028,-0.0717 -0.1943,-0.0717 -0.02618,0 -0.06477,0.003 z"
         style="font-style:italic;font-variant:normal;font-weight:bold;font-stretch:normal;font-size:2.82216954px;font-family:'Times New Roman';-inkscape-font-specification:'Times New Roman, Bold Italic';fill:#666666;fill-opacity:1;stroke-width:0.1009021"
         id="path947" />
      <path
         d="m 18.578256,294.48509 -0.358283,1.24159 q 0.186031,-0.27423 0.27009,-0.37069 0.125399,-0.13918 0.21497,-0.18741 0.09095,-0.0496 0.17363,-0.0496 0.07028,0 0.119887,0.0537 0.05099,0.0524 0.05099,0.14056 0,0.0744 -0.03307,0.18603 l -0.175008,0.58703 q -0.02343,0.0772 -0.02343,0.10335 0,0.0124 0.0096,0.0234 0.0096,0.01 0.02205,0.01 0.01654,0 0.03307,-0.0138 0.0441,-0.0344 0.0937,-0.11024 0.0124,-0.0193 0.03996,-0.0579 l 0.05374,0.0303 q -0.118509,0.19568 -0.224616,0.26871 -0.106107,0.073 -0.201189,0.073 -0.08544,0 -0.133668,-0.0441 -0.04823,-0.0441 -0.04823,-0.11024 0,-0.0606 0.03307,-0.17225 l 0.170874,-0.58703 q 0.01654,-0.0606 0.01654,-0.0882 0,-0.0152 -0.0124,-0.0262 -0.01102,-0.0124 -0.02618,-0.0124 -0.04961,0 -0.136424,0.0827 -0.179141,0.1695 -0.358283,0.53191 l -0.122643,0.40927 h -0.341747 l 0.451988,-1.55715 q 0.02756,-0.0992 0.02756,-0.14194 0,-0.0344 -0.02756,-0.0537 -0.03583,-0.0262 -0.110241,-0.022 l 0.0096,-0.0551 0.458878,-0.0813 z"
         style="font-style:italic;font-variant:normal;font-weight:bold;font-stretch:normal;font-size:2.82216954px;font-family:'Times New Roman';-inkscape-font-specification:'Times New Roman, Bold Italic';fill:#666666;fill-opacity:1;stroke-width:0.1009021"
         id="path949" />
      <path
         d="m 19.971426,295.11898 -0.267334,0.93704 q -0.01929,0.0648 -0.01929,0.0896 0,0.0124 0.0096,0.0193 0.01102,0.011 0.02618,0.011 0.06339,0 0.169496,-0.113 0.151581,-0.16398 0.318321,-0.47128 l 0.125399,-0.42167 0.348637,-0.0124 -0.264578,0.90949 q -0.03307,0.11575 -0.03307,0.13229 0,0.011 0.0096,0.0234 0.01102,0.011 0.02205,0.011 0.01929,0 0.03721,-0.0165 0.04961,-0.04 0.130911,-0.16123 l 0.04685,0.0331 q -0.191543,0.34588 -0.421671,0.34588 -0.08544,0 -0.135046,-0.0427 -0.04823,-0.0441 -0.04823,-0.11438 0,-0.0744 0.03445,-0.18878 l 0.06752,-0.23289 q -0.179142,0.26045 -0.260444,0.3514 -0.124022,0.13642 -0.209458,0.18189 -0.08406,0.0455 -0.161228,0.0455 -0.07303,0 -0.126777,-0.0537 -0.05236,-0.0537 -0.05236,-0.13642 0,-0.0703 0.03445,-0.18879 l 0.155715,-0.5512 q 0.03859,-0.13505 0.03859,-0.1819 0,-0.0207 -0.01102,-0.0358 -0.01103,-0.0165 -0.03721,-0.0248 -0.0248,-0.01 -0.0937,-0.01 l 0.01378,-0.0524 0.469903,-0.0813 z m -0.24253,1.41797 q 0.09646,0 0.162606,0.0661 0.06752,0.0675 0.06752,0.16399 0,0.0951 -0.06752,0.16123 -0.06752,0.0675 -0.162606,0.0675 -0.09508,0 -0.162605,-0.0675 -0.06614,-0.0661 -0.06614,-0.16123 0,-0.0951 0.06614,-0.16261 0.06752,-0.0675 0.162605,-0.0675 z"
         style="font-style:italic;font-variant:normal;font-weight:bold;font-stretch:normal;font-size:2.82216954px;font-family:'Times New Roman';-inkscape-font-specification:'Times New Roman, Bold Italic';fill:#666666;fill-opacity:1;stroke-width:0.1009021"
         id="path951" />
      <path
         d="m 21.852413,296.06429 0.04134,0.0372 q -0.133667,0.15985 -0.263201,0.23426 -0.172251,0.0992 -0.356905,0.0992 -0.124021,0 -0.220482,-0.0524 -0.09508,-0.0537 -0.140557,-0.14882 -0.04547,-0.0965 -0.04547,-0.19706 0,-0.22599 0.122644,-0.44372 0.122643,-0.2191 0.323832,-0.34588 0.20119,-0.12815 0.39549,-0.12815 0.155715,0 0.234262,0.0689 0.07855,0.0689 0.07855,0.17087 0,0.0923 -0.05926,0.15709 -0.05925,0.0648 -0.132289,0.0648 -0.06339,0 -0.106107,-0.0413 -0.04134,-0.0413 -0.04134,-0.0978 0,-0.0744 0.07441,-0.12953 0.05099,-0.0386 0.05099,-0.0675 0,-0.0248 -0.02067,-0.04 -0.02756,-0.022 -0.07166,-0.022 -0.115753,0 -0.217726,0.0937 -0.135045,0.12402 -0.206702,0.31419 -0.07166,0.19016 -0.07166,0.36103 0,0.13505 0.07303,0.21635 0.07303,0.0799 0.17363,0.0799 0.08819,0 0.190166,-0.0455 0.103351,-0.0455 0.195677,-0.1378 z"
         style="font-style:italic;font-variant:normal;font-weight:bold;font-stretch:normal;font-size:2.82216954px;font-family:'Times New Roman';-inkscape-font-specification:'Times New Roman, Bold Italic';fill:#666666;fill-opacity:1;stroke-width:0.1009021"
         id="path953" />
      <path
         d="m 23.138099,296.43498 h -0.04961 q 0.0041,-0.113 0.0041,-0.17088 0,-0.15709 -0.0248,-0.45336 -0.02343,-0.29765 -0.05374,-0.39687 -0.02343,-0.073 -0.06201,-0.10611 -0.02618,-0.022 -0.06752,-0.022 -0.02343,0 -0.0565,0.006 v -0.0496 l 0.458878,-0.12264 q 0.137801,0.37619 0.133667,0.96323 0.202568,-0.19293 0.278358,-0.31281 0.07717,-0.11989 0.07717,-0.19981 0,-0.0634 -0.04823,-0.12816 -0.04685,-0.0661 -0.05926,-0.0937 -0.01102,-0.0276 -0.01102,-0.0606 0,-0.0716 0.04685,-0.11988 0.04685,-0.0482 0.11851,-0.0482 0.07579,0 0.117131,0.0482 0.05788,0.0675 0.05788,0.15985 0,0.0951 -0.03445,0.1874 -0.03307,0.091 -0.115753,0.21635 -0.0813,0.12402 -0.181898,0.226 -0.184654,0.18741 -0.527779,0.47817 z"
         style="font-style:italic;font-variant:normal;font-weight:bold;font-stretch:normal;font-size:2.82216954px;font-family:'Times New Roman';-inkscape-font-specification:'Times New Roman, Bold Italic';fill:#666666;fill-opacity:1;stroke-width:0.1009021"
         id="path955" />
      <path
         d="m 24.750374,295.11898 -0.267334,0.93704 q -0.01929,0.0648 -0.01929,0.0896 0,0.0124 0.0096,0.0193 0.01102,0.011 0.02618,0.011 0.06339,0 0.169495,-0.113 0.151582,-0.16398 0.318321,-0.47128 l 0.125399,-0.42167 0.348638,-0.0124 -0.264579,0.90949 q -0.03307,0.11575 -0.03307,0.13229 0,0.011 0.0096,0.0234 0.01102,0.011 0.02205,0.011 0.01929,0 0.03721,-0.0165 0.04961,-0.04 0.130912,-0.16123 l 0.04685,0.0331 q -0.191544,0.34588 -0.421672,0.34588 -0.08544,0 -0.135045,-0.0427 -0.04823,-0.0441 -0.04823,-0.11438 0,-0.0744 0.03445,-0.18878 l 0.06752,-0.23289 q -0.179141,0.26045 -0.260444,0.3514 -0.124021,0.13642 -0.209458,0.18189 -0.08406,0.0455 -0.161227,0.0455 -0.07304,0 -0.126777,-0.0537 -0.05236,-0.0537 -0.05236,-0.13642 0,-0.0703 0.03445,-0.18879 l 0.155716,-0.5512 q 0.03858,-0.13505 0.03858,-0.1819 0,-0.0207 -0.01102,-0.0358 -0.01102,-0.0165 -0.03721,-0.0248 -0.0248,-0.01 -0.0937,-0.01 l 0.01378,-0.0524 0.469902,-0.0813 z m -0.24253,1.41797 q 0.09646,0 0.162605,0.0661 0.06752,0.0675 0.06752,0.16399 0,0.0951 -0.06752,0.16123 -0.06752,0.0675 -0.162605,0.0675 -0.09508,0 -0.162606,-0.0675 -0.06614,-0.0661 -0.06614,-0.16123 0,-0.0951 0.06614,-0.16261 0.06752,-0.0675 0.162606,-0.0675 z"
         style="font-style:italic;font-variant:normal;font-weight:bold;font-stretch:normal;font-size:2.82216954px;font-family:'Times New Roman';-inkscape-font-specification:'Times New Roman, Bold Italic';fill:#666666;fill-opacity:1;stroke-width:0.1009021"
         id="path957" />
      <path
         d="m 27.168785,294.48509 -0.238396,0.83094 q 0.108863,-0.11851 0.181898,-0.15709 0.07303,-0.04 0.158471,-0.04 0.165362,0 0.246664,0.11988 0.08268,0.11851 0.08268,0.27423 0,0.37206 -0.27009,0.6642 -0.239774,0.25769 -0.545693,0.25769 -0.227372,0 -0.480927,-0.13367 l 0.421672,-1.46207 q 0.03032,-0.10335 0.03032,-0.14194 0,-0.0331 -0.02756,-0.0524 -0.03858,-0.0276 -0.117131,-0.0234 l 0.01516,-0.0551 0.460257,-0.0813 z m -0.529157,1.83 q 0.06477,0.0413 0.117132,0.0413 0.07303,0 0.122643,-0.0289 0.07855,-0.0469 0.163983,-0.16949 0.08681,-0.12265 0.144691,-0.29628 0.05788,-0.17363 0.05788,-0.34588 0,-0.0978 -0.0441,-0.14882 -0.0441,-0.051 -0.101973,-0.051 -0.09646,0 -0.168118,0.0937 -0.04823,0.0606 -0.104729,0.25768 z"
         style="font-style:italic;font-variant:normal;font-weight:bold;font-stretch:normal;font-size:2.82216954px;font-family:'Times New Roman';-inkscape-font-specification:'Times New Roman, Bold Italic';fill:#666666;fill-opacity:1;stroke-width:0.1009021"
         id="path959" />
      <path
         d="m 28.12926,295.87964 q -0.0124,0.0896 -0.0124,0.14745 0,0.10335 0.05926,0.16536 0.06063,0.062 0.161227,0.062 0.09646,0 0.192922,-0.0469 0.09784,-0.0469 0.225994,-0.16399 l 0.04134,0.0372 q -0.158471,0.19154 -0.308674,0.27284 -0.150204,0.0813 -0.332101,0.0813 -0.230129,0 -0.318321,-0.11024 -0.08819,-0.11024 -0.08819,-0.25494 0,-0.22599 0.130911,-0.45198 0.132289,-0.226 0.358283,-0.36242 0.227372,-0.13642 0.456122,-0.13642 0.115753,0 0.175008,0.0551 0.05926,0.0551 0.05926,0.13918 0,0.10059 -0.05788,0.19567 -0.07992,0.12954 -0.20119,0.20946 -0.121265,0.0786 -0.271468,0.11989 -0.100595,0.0276 -0.270091,0.0413 z m 0.0124,-0.0717 q 0.121266,-0.0179 0.18741,-0.0482 0.06752,-0.0317 0.130911,-0.0992 0.06477,-0.0689 0.111619,-0.17225 0.04685,-0.10473 0.04685,-0.19568 0,-0.0386 -0.02205,-0.0606 -0.02067,-0.022 -0.05374,-0.022 -0.06614,0 -0.148825,0.0923 -0.151582,0.16812 -0.252177,0.50573 z m 0.337613,-1.32289 h 0.312809 l 0.140558,0.46852 h -0.140558 l -0.184653,-0.27973 -0.405136,0.27973 h -0.144691 z m -0.394111,2.05186 q 0.09646,0 0.162605,0.0661 0.06752,0.0675 0.06752,0.16399 0,0.0951 -0.06752,0.16123 -0.06752,0.0675 -0.162605,0.0675 -0.09508,0 -0.162606,-0.0675 -0.06614,-0.0661 -0.06614,-0.16123 0,-0.0951 0.06614,-0.16261 0.06752,-0.0675 0.162606,-0.0675 z"
         style="font-style:italic;font-variant:normal;font-weight:bold;font-stretch:normal;font-size:2.82216954px;font-family:'Times New Roman';-inkscape-font-specification:'Times New Roman, Bold Italic';fill:#666666;fill-opacity:1;stroke-width:0.1009021"
         id="path961" />
      <path
         d="m 29.693304,295.11898 -0.170873,0.59116 q 0.172251,-0.25906 0.257688,-0.35415 0.125399,-0.1378 0.216348,-0.18741 0.09095,-0.0496 0.170873,-0.0496 0.07166,0 0.122644,0.0537 0.05099,0.0524 0.05099,0.1378 0,0.0772 -0.03307,0.18741 l -0.176386,0.58841 q -0.02205,0.0772 -0.02205,0.10059 0,0.0138 0.0096,0.0248 0.01102,0.011 0.02205,0.011 0.01378,0 0.02894,-0.011 0.04823,-0.04 0.09784,-0.113 0.0124,-0.0193 0.03996,-0.0579 l 0.05236,0.0317 q -0.202568,0.34037 -0.425806,0.34037 -0.08544,0 -0.133667,-0.0441 -0.04823,-0.0441 -0.04823,-0.11024 0,-0.0579 0.03307,-0.17225 l 0.172252,-0.58841 q 0.01791,-0.0579 0.01791,-0.0854 0,-0.0152 -0.0124,-0.0262 -0.0124,-0.0124 -0.02894,-0.0124 -0.05236,0 -0.126777,0.0716 -0.190166,0.1819 -0.367929,0.54156 l -0.112997,0.40927 H 28.97536 l 0.257688,-0.88468 q 0.03721,-0.13091 0.03721,-0.18603 0,-0.0234 -0.01102,-0.0386 -0.01102,-0.0165 -0.03583,-0.0248 -0.0248,-0.01 -0.0937,-0.01 l 0.01516,-0.0524 0.46439,-0.0813 z"
         style="font-style:italic;font-variant:normal;font-weight:bold;font-stretch:normal;font-size:2.82216954px;font-family:'Times New Roman';-inkscape-font-specification:'Times New Roman, Bold Italic';fill:#666666;fill-opacity:1;stroke-width:0.1009021"
         id="path963" />
      <path
         d="m 31.437868,294.48509 -0.358283,1.24159 q 0.186031,-0.27423 0.27009,-0.37069 0.125399,-0.13918 0.21497,-0.18741 0.09095,-0.0496 0.17363,-0.0496 0.07028,0 0.119887,0.0537 0.05099,0.0524 0.05099,0.14056 0,0.0744 -0.03307,0.18603 l -0.175008,0.58703 q -0.02343,0.0772 -0.02343,0.10335 0,0.0124 0.0096,0.0234 0.0096,0.01 0.02205,0.01 0.01654,0 0.03307,-0.0138 0.0441,-0.0344 0.0937,-0.11024 0.0124,-0.0193 0.03996,-0.0579 l 0.05374,0.0303 q -0.118509,0.19568 -0.224616,0.26871 -0.106107,0.073 -0.201189,0.073 -0.08544,0 -0.133668,-0.0441 -0.04823,-0.0441 -0.04823,-0.11024 0,-0.0606 0.03307,-0.17225 l 0.170874,-0.58703 q 0.01654,-0.0606 0.01654,-0.0882 0,-0.0152 -0.0124,-0.0262 -0.01102,-0.0124 -0.02618,-0.0124 -0.04961,0 -0.136424,0.0827 -0.179141,0.1695 -0.358283,0.53191 l -0.122643,0.40927 h -0.341747 l 0.451988,-1.55715 q 0.02756,-0.0992 0.02756,-0.14194 0,-0.0344 -0.02756,-0.0537 -0.03583,-0.0262 -0.110241,-0.022 l 0.0096,-0.0551 0.458878,-0.0813 z"
         style="font-style:italic;font-variant:normal;font-weight:bold;font-stretch:normal;font-size:2.82216954px;font-family:'Times New Roman';-inkscape-font-specification:'Times New Roman, Bold Italic';fill:#666666;fill-opacity:1;stroke-width:0.1009021"
         id="path965" />
      <path
         d="m 33.540715,295.11898 -0.170873,0.59116 q 0.172251,-0.25906 0.257688,-0.35415 0.125399,-0.1378 0.216348,-0.18741 0.09095,-0.0496 0.170874,-0.0496 0.07166,0 0.122643,0.0537 0.05099,0.0524 0.05099,0.1378 0,0.0772 -0.03307,0.18741 l -0.176386,0.58841 q -0.02205,0.0772 -0.02205,0.10059 0,0.0138 0.0096,0.0248 0.01102,0.011 0.02205,0.011 0.01378,0 0.02894,-0.011 0.04823,-0.04 0.09784,-0.113 0.0124,-0.0193 0.03996,-0.0579 l 0.05236,0.0317 q -0.202567,0.34037 -0.425806,0.34037 -0.08544,0 -0.133667,-0.0441 -0.04823,-0.0441 -0.04823,-0.11024 0,-0.0579 0.03307,-0.17225 l 0.172252,-0.58841 q 0.01791,-0.0579 0.01791,-0.0854 0,-0.0152 -0.0124,-0.0262 -0.0124,-0.0124 -0.02894,-0.0124 -0.05236,0 -0.126777,0.0716 -0.190165,0.1819 -0.367929,0.54156 l -0.112997,0.40927 h -0.351393 l 0.257688,-0.88468 q 0.03721,-0.13091 0.03721,-0.18603 0,-0.0234 -0.01102,-0.0386 -0.01102,-0.0165 -0.03583,-0.0248 -0.0248,-0.01 -0.0937,-0.01 l 0.01516,-0.0524 0.464391,-0.0813 z"
         style="font-style:italic;font-variant:normal;font-weight:bold;font-stretch:normal;font-size:2.82216954px;font-family:'Times New Roman';-inkscape-font-specification:'Times New Roman, Bold Italic';fill:#666666;fill-opacity:1;stroke-width:0.1009021"
         id="path967" />
      <path
         d="m 35.285279,294.48509 -0.358283,1.24159 q 0.186032,-0.27423 0.27009,-0.37069 0.1254,-0.13918 0.21497,-0.18741 0.09095,-0.0496 0.17363,-0.0496 0.07028,0 0.119887,0.0537 0.05099,0.0524 0.05099,0.14056 0,0.0744 -0.03307,0.18603 l -0.175007,0.58703 q -0.02343,0.0772 -0.02343,0.10335 0,0.0124 0.0096,0.0234 0.0096,0.01 0.02205,0.01 0.01654,0 0.03307,-0.0138 0.0441,-0.0344 0.0937,-0.11024 0.0124,-0.0193 0.03996,-0.0579 l 0.05374,0.0303 q -0.118509,0.19568 -0.224616,0.26871 -0.106107,0.073 -0.20119,0.073 -0.08544,0 -0.133667,-0.0441 -0.04823,-0.0441 -0.04823,-0.11024 0,-0.0606 0.03307,-0.17225 l 0.170874,-0.58703 q 0.01654,-0.0606 0.01654,-0.0882 0,-0.0152 -0.0124,-0.0262 -0.01102,-0.0124 -0.02618,-0.0124 -0.04961,0 -0.136423,0.0827 -0.179142,0.1695 -0.358284,0.53191 l -0.122643,0.40927 h -0.341747 l 0.451988,-1.55715 q 0.02756,-0.0992 0.02756,-0.14194 0,-0.0344 -0.02756,-0.0537 -0.03583,-0.0262 -0.110241,-0.022 l 0.0096,-0.0551 0.458878,-0.0813 z"
         style="font-style:italic;font-variant:normal;font-weight:bold;font-stretch:normal;font-size:2.82216954px;font-family:'Times New Roman';-inkscape-font-specification:'Times New Roman, Bold Italic';fill:#666666;fill-opacity:1;stroke-width:0.1009021"
         id="path969" />
      <path
         d="m 37.280641,295.13827 -0.267334,0.91638 -0.02756,0.11161 q -0.0041,0.0207 -0.0041,0.0303 0,0.0165 0.01102,0.0289 0.0124,0.0124 0.0248,0.0124 0.02894,0 0.07993,-0.0441 0.02067,-0.0179 0.09922,-0.12677 l 0.04823,0.0248 q -0.09784,0.17914 -0.209458,0.26182 -0.110241,0.0813 -0.238396,0.0813 -0.07855,0 -0.119887,-0.04 -0.04134,-0.0413 -0.04134,-0.10335 0,-0.0537 0.0441,-0.19981 l 0.03307,-0.11162 q -0.159849,0.27423 -0.307297,0.3886 -0.08544,0.0661 -0.181897,0.0661 -0.126777,0 -0.183276,-0.10335 -0.0565,-0.10473 -0.0565,-0.23564 0,-0.1943 0.118509,-0.4451 0.118509,-0.25218 0.31143,-0.40514 0.158472,-0.12677 0.297651,-0.12677 0.07717,0 0.124021,0.0455 0.04685,0.0441 0.0689,0.16261 l 0.04961,-0.1695 z m -0.440964,0.26182 q 0,-0.11162 -0.03445,-0.16123 -0.0248,-0.0344 -0.06752,-0.0344 -0.04272,0 -0.08819,0.0413 -0.09233,0.0854 -0.199812,0.34726 -0.106107,0.26045 -0.106107,0.45061 0,0.073 0.02343,0.10611 0.0248,0.0317 0.05374,0.0317 0.06201,0 0.125399,-0.0716 0.09095,-0.10198 0.163983,-0.24942 0.129533,-0.25907 0.129533,-0.46026 z m -0.04685,-0.915 h 0.312809 l 0.140557,0.46852 h -0.140557 l -0.184654,-0.27973 -0.405136,0.27973 h -0.144691 z"
         style="font-style:italic;font-variant:normal;font-weight:bold;font-stretch:normal;font-size:2.82216954px;font-family:'Times New Roman';-inkscape-font-specification:'Times New Roman, Bold Italic';fill:#666666;fill-opacity:1;stroke-width:0.1009021"
         id="path971" />
      <path
         d="m 38.093669,295.11898 -0.170874,0.59116 q 0.172252,-0.25906 0.257689,-0.35415 0.125399,-0.1378 0.216348,-0.18741 0.09095,-0.0496 0.170873,-0.0496 0.07166,0 0.122643,0.0537 0.05099,0.0524 0.05099,0.1378 0,0.0772 -0.03307,0.18741 l -0.176386,0.58841 q -0.02205,0.0772 -0.02205,0.10059 0,0.0138 0.0096,0.0248 0.01102,0.011 0.02205,0.011 0.01378,0 0.02894,-0.011 0.04823,-0.04 0.09784,-0.113 0.0124,-0.0193 0.03996,-0.0579 l 0.05236,0.0317 q -0.202568,0.34037 -0.425806,0.34037 -0.08544,0 -0.133667,-0.0441 -0.04823,-0.0441 -0.04823,-0.11024 0,-0.0579 0.03307,-0.17225 l 0.172251,-0.58841 q 0.01792,-0.0579 0.01792,-0.0854 0,-0.0152 -0.0124,-0.0262 -0.0124,-0.0124 -0.02894,-0.0124 -0.05236,0 -0.126777,0.0716 -0.190166,0.1819 -0.367929,0.54156 l -0.112997,0.40927 h -0.351393 l 0.257688,-0.88468 q 0.03721,-0.13091 0.03721,-0.18603 0,-0.0234 -0.01102,-0.0386 -0.01102,-0.0165 -0.03583,-0.0248 -0.0248,-0.01 -0.0937,-0.01 l 0.01516,-0.0524 0.46439,-0.0813 z"
         style="font-style:italic;font-variant:normal;font-weight:bold;font-stretch:normal;font-size:2.82216954px;font-family:'Times New Roman';-inkscape-font-specification:'Times New Roman, Bold Italic';fill:#666666;fill-opacity:1;stroke-width:0.1009021"
         id="path973" />
      <path
         d="m 40.535506,294.48509 -0.380331,1.3036 0.315565,-0.29214 0.104729,-0.0937 q 0.04547,-0.0469 0.06339,-0.0799 0.01102,-0.0207 0.01102,-0.0386 0,-0.0289 -0.02756,-0.0482 -0.02756,-0.0193 -0.133667,-0.0262 l 0.01516,-0.0524 h 0.560851 l -0.01378,0.0524 q -0.09922,0.0234 -0.161227,0.0537 -0.04823,0.0234 -0.118509,0.0772 -0.104729,0.0813 -0.150204,0.12539 l -0.06063,0.0565 0.08406,0.38033 q 0.04823,0.22049 0.07166,0.25494 0.01516,0.0207 0.03583,0.0207 0.04823,0 0.114375,-0.113 0.0096,-0.0152 0.02618,-0.0427 l 0.05099,0.0317 q -0.103351,0.19292 -0.232884,0.29351 -0.08682,0.0675 -0.157093,0.0675 -0.07028,0 -0.117131,-0.0496 -0.04685,-0.051 -0.0937,-0.26458 l -0.0689,-0.31281 -0.151581,0.13504 -0.137802,0.47266 h -0.351393 l 0.4575,-1.55577 q 0.02894,-0.0992 0.02894,-0.13367 0,-0.0317 -0.01378,-0.051 -0.01378,-0.0207 -0.03858,-0.0303 -0.02343,-0.01 -0.09508,-0.01 l 0.0124,-0.051 0.468525,-0.0799 z"
         style="font-style:italic;font-variant:normal;font-weight:bold;font-stretch:normal;font-size:2.82216954px;font-family:'Times New Roman';-inkscape-font-specification:'Times New Roman, Bold Italic';fill:#666666;fill-opacity:1;stroke-width:0.1009021"
         id="path975" />
      <path
         d="m 41.661343,294.48509 q 0.08544,0 0.143313,0.0592 0.05926,0.0593 0.05926,0.14332 0,0.0841 -0.05926,0.14331 -0.05925,0.0593 -0.143313,0.0593 -0.08268,0 -0.141935,-0.0593 -0.05926,-0.0592 -0.05926,-0.14331 0,-0.0841 0.05788,-0.14332 0.05925,-0.0592 0.143313,-0.0592 z m 0.08544,0.63389 -0.282493,0.97976 q -0.02343,0.0841 -0.02343,0.11024 0,0.0152 0.0124,0.0289 0.0124,0.0124 0.02618,0.0124 0.02343,0 0.04685,-0.0207 0.06201,-0.051 0.148825,-0.18465 l 0.04685,0.0276 q -0.20808,0.36242 -0.442342,0.36242 -0.08957,0 -0.143314,-0.0496 -0.05236,-0.051 -0.05236,-0.12816 0,-0.051 0.02343,-0.12953 l 0.191544,-0.65869 q 0.02756,-0.0951 0.02756,-0.14331 0,-0.0303 -0.02618,-0.0537 -0.02618,-0.0234 -0.07166,-0.0234 -0.02067,0 -0.04961,0.001 l 0.01791,-0.0551 0.467146,-0.0758 z m -0.494707,1.41797 q 0.09646,0 0.162606,0.0661 0.06752,0.0675 0.06752,0.16399 0,0.0951 -0.06752,0.16123 -0.06752,0.0675 -0.162606,0.0675 -0.09508,0 -0.162605,-0.0675 -0.06614,-0.0661 -0.06614,-0.16123 0,-0.0951 0.06614,-0.16261 0.06752,-0.0675 0.162605,-0.0675 z"
         style="font-style:italic;font-variant:normal;font-weight:bold;font-stretch:normal;font-size:2.82216954px;font-family:'Times New Roman';-inkscape-font-specification:'Times New Roman, Bold Italic';fill:#666666;fill-opacity:1;stroke-width:0.1009021"
         id="path977" />
      <path
         d="m 41.981042,295.19614 0.456122,-0.0772 h 0.08268 l -0.06201,0.22461 q 0.144691,-0.13229 0.237018,-0.17776 0.09233,-0.0469 0.183276,-0.0469 0.129533,0 0.199812,0.10059 0.07028,0.0992 0.07028,0.24391 0,0.39549 -0.274224,0.70141 -0.24253,0.27009 -0.529157,0.27009 -0.05099,0 -0.08682,-0.01 -0.03583,-0.01 -0.100595,-0.0427 l -0.07166,0.24804 q -0.03858,0.13505 -0.03858,0.20533 0,0.0441 0.03032,0.0689 0.03032,0.0262 0.141935,0.0441 l -0.0124,0.051 h -0.741371 l 0.01378,-0.051 q 0.08819,-0.003 0.147448,-0.0565 0.05788,-0.0537 0.108863,-0.23151 l 0.336235,-1.15891 q 0.03721,-0.12953 0.03721,-0.18327 0,-0.0234 -0.01102,-0.0386 -0.01102,-0.0165 -0.03307,-0.0234 -0.02205,-0.007 -0.09922,-0.007 z m 0.21497,1.05832 q 0.04134,0.0675 0.07441,0.091 0.03307,0.022 0.07717,0.022 0.0441,0 0.08544,-0.0234 0.04272,-0.0248 0.104729,-0.0978 0.06201,-0.073 0.118509,-0.18741 0.05788,-0.11438 0.09233,-0.25907 0.03445,-0.14607 0.03445,-0.27836 0,-0.1061 -0.03858,-0.15433 -0.03721,-0.0482 -0.09095,-0.0482 -0.04823,0 -0.09095,0.0248 -0.06201,0.0358 -0.146069,0.13367 z"
         style="font-style:italic;font-variant:normal;font-weight:bold;font-stretch:normal;font-size:2.82216954px;font-family:'Times New Roman';-inkscape-font-specification:'Times New Roman, Bold Italic';fill:#666666;fill-opacity:1;stroke-width:0.1009021"
         id="path979" />
      <path
         d="m 44.735688,294.78274 -0.110241,0.37482 h 0.18052 l -0.04823,0.15847 h -0.177764 l -0.230128,0.79925 q -0.02205,0.0744 -0.02205,0.113 0,0.0179 0.0124,0.0317 0.0124,0.0124 0.02756,0.0124 0.02343,0 0.04823,-0.0193 0.06339,-0.0482 0.147448,-0.16812 l 0.04823,0.0303 q -0.09508,0.16536 -0.209458,0.24253 -0.114375,0.0772 -0.224616,0.0772 -0.0937,0 -0.146069,-0.0469 -0.05099,-0.0482 -0.05099,-0.12126 0,-0.0799 0.03583,-0.20532 l 0.217726,-0.74551 h -0.18741 l 0.02756,-0.10197 q 0.176386,-0.0648 0.297651,-0.15158 0.121265,-0.0868 0.292139,-0.27974 z"
         style="font-style:italic;font-variant:normal;font-weight:bold;font-stretch:normal;font-size:2.82216954px;font-family:'Times New Roman';-inkscape-font-specification:'Times New Roman, Bold Italic';fill:#666666;fill-opacity:1;stroke-width:0.1009021"
         id="path981" />
      <path
         d="m 45.636908,294.48509 -0.358283,1.24159 q 0.186032,-0.27423 0.270091,-0.37069 0.125399,-0.13918 0.21497,-0.18741 0.09095,-0.0496 0.173629,-0.0496 0.07028,0 0.119887,0.0537 0.05099,0.0524 0.05099,0.14056 0,0.0744 -0.03307,0.18603 l -0.175007,0.58703 q -0.02343,0.0772 -0.02343,0.10335 0,0.0124 0.0096,0.0234 0.0096,0.01 0.02205,0.01 0.01654,0 0.03307,-0.0138 0.0441,-0.0344 0.0937,-0.11024 0.0124,-0.0193 0.03996,-0.0579 l 0.05374,0.0303 q -0.118509,0.19568 -0.224616,0.26871 -0.106107,0.073 -0.20119,0.073 -0.08544,0 -0.133667,-0.0441 -0.04823,-0.0441 -0.04823,-0.11024 0,-0.0606 0.03307,-0.17225 l 0.170873,-0.58703 q 0.01654,-0.0606 0.01654,-0.0882 0,-0.0152 -0.0124,-0.0262 -0.01102,-0.0124 -0.02618,-0.0124 -0.04961,0 -0.136423,0.0827 -0.179142,0.1695 -0.358283,0.53191 l -0.122644,0.40927 h -0.341747 l 0.451988,-1.55715 q 0.02756,-0.0992 0.02756,-0.14194 0,-0.0344 -0.02756,-0.0537 -0.03583,-0.0262 -0.110241,-0.022 l 0.0096,-0.0551 0.458878,-0.0813 z"
         style="font-style:italic;font-variant:normal;font-weight:bold;font-stretch:normal;font-size:2.82216954px;font-family:'Times New Roman';-inkscape-font-specification:'Times New Roman, Bold Italic';fill:#666666;fill-opacity:1;stroke-width:0.1009021"
         id="path983" />
      <path
         d="m 47.606088,295.50757 q 0,0.22462 -0.125399,0.44786 -0.125399,0.22324 -0.329345,0.35139 -0.202568,0.12816 -0.409269,0.12816 -0.181898,0 -0.290761,-0.11162 -0.101973,-0.10611 -0.101973,-0.27285 0,-0.36517 0.271468,-0.6518 0.264579,-0.27973 0.587034,-0.27973 0.107485,0 0.205324,0.0496 0.06339,0.0331 0.135045,0.11162 0.05236,0.0565 0.101973,0.0551 0.01516,0 0.05925,-0.01 0.02067,-0.007 0.03583,-0.0413 0.0069,-0.0138 0,-0.0248 -0.0317,-0.0165 -0.09095,-0.0813 -0.03307,-0.0565 -0.01929,-0.10886 0.01516,-0.0537 0.07303,-0.0854 0.05926,-0.0331 0.122643,-0.0138 0.07441,0.0221 0.107485,0.0965 0.03445,0.073 0.0055,0.15985 -0.03169,0.0978 -0.139179,0.14194 -0.06201,0.0248 -0.219104,0.0248 0.02067,0.0469 0.02067,0.11437 z m -0.454744,-0.31556 q -0.07303,0 -0.121265,0.0427 -0.103351,0.0923 -0.217726,0.40513 -0.121265,0.3321 -0.121265,0.57601 0,0.062 0.03721,0.10473 0.03859,0.0413 0.09233,0.0413 0.05374,0 0.09508,-0.0331 0.06339,-0.0524 0.148825,-0.22186 0.09095,-0.1819 0.144692,-0.38309 0.0565,-0.20808 0.0565,-0.38171 0,-0.1502 -0.114375,-0.1502 z m -0.29765,-0.70692 h 0.405135 l 0.147448,0.47817 h -0.107485 z"
         style="font-style:italic;font-variant:normal;font-weight:bold;font-stretch:normal;font-size:2.82216954px;font-family:'Times New Roman';-inkscape-font-specification:'Times New Roman, Bold Italic';fill:#666666;fill-opacity:1;stroke-width:0.1009021"
         id="path985" />
      <path
         d="m 48.43014,294.48509 q 0.08544,0 0.143313,0.0592 0.05926,0.0593 0.05926,0.14332 0,0.0841 -0.05926,0.14331 -0.05925,0.0593 -0.143313,0.0593 -0.08268,0 -0.141935,-0.0593 -0.05926,-0.0592 -0.05926,-0.14331 0,-0.0841 0.05788,-0.14332 0.05925,-0.0592 0.143313,-0.0592 z m 0.08544,0.63389 -0.282493,0.97976 q -0.02343,0.0841 -0.02343,0.11024 0,0.0152 0.0124,0.0289 0.0124,0.0124 0.02618,0.0124 0.02343,0 0.04685,-0.0207 0.06201,-0.051 0.148825,-0.18465 l 0.04685,0.0276 q -0.208079,0.36242 -0.442342,0.36242 -0.08957,0 -0.143313,-0.0496 -0.05236,-0.051 -0.05236,-0.12816 0,-0.051 0.02343,-0.12953 l 0.191544,-0.65869 q 0.02756,-0.0951 0.02756,-0.14331 0,-0.0303 -0.02618,-0.0537 -0.02618,-0.0234 -0.07166,-0.0234 -0.02067,0 -0.04961,0.001 l 0.01791,-0.0551 0.467146,-0.0758 z"
         style="font-style:italic;font-variant:normal;font-weight:bold;font-stretch:normal;font-size:2.82216954px;font-family:'Times New Roman';-inkscape-font-specification:'Times New Roman, Bold Italic';fill:#666666;fill-opacity:1;stroke-width:0.1009021"
         id="path987" />
      <path
         d="m 50.177459,294.48509 -0.456122,1.55164 q -0.03996,0.1378 -0.03996,0.17225 0,0.0179 0.01102,0.0303 0.0124,0.0124 0.02618,0.0124 0.0248,0 0.04685,-0.0193 0.06614,-0.0537 0.147447,-0.1819 l 0.05374,0.0248 q -0.130911,0.20945 -0.257688,0.29902 -0.08681,0.0606 -0.184654,0.0606 -0.09095,0 -0.144691,-0.0482 -0.05374,-0.0496 -0.05374,-0.11851 0,-0.051 0.03307,-0.16399 l 0.372064,-1.27052 q 0.03032,-0.10473 0.03032,-0.13918 0,-0.0331 -0.02894,-0.0524 -0.03858,-0.0276 -0.117131,-0.0234 l 0.01516,-0.0524 0.46439,-0.0813 z"
         style="font-style:italic;font-variant:normal;font-weight:bold;font-stretch:normal;font-size:2.82216954px;font-family:'Times New Roman';-inkscape-font-specification:'Times New Roman, Bold Italic';fill:#666666;fill-opacity:1;stroke-width:0.1009021"
         id="path989" />
      <path
         d="m 51.419048,295.13827 -0.267334,0.91638 -0.02756,0.11161 q -0.0041,0.0207 -0.0041,0.0303 0,0.0165 0.01102,0.0289 0.0124,0.0124 0.02481,0.0124 0.02894,0 0.07992,-0.0441 0.02067,-0.0179 0.09922,-0.12677 l 0.04823,0.0248 q -0.09784,0.17914 -0.209458,0.26182 -0.110241,0.0813 -0.238396,0.0813 -0.07855,0 -0.119887,-0.04 -0.04134,-0.0413 -0.04134,-0.10335 0,-0.0537 0.0441,-0.19981 l 0.03307,-0.11162 q -0.15985,0.27423 -0.307297,0.3886 -0.08544,0.0661 -0.181898,0.0661 -0.126777,0 -0.183275,-0.10335 -0.0565,-0.10473 -0.0565,-0.23564 0,-0.1943 0.118509,-0.4451 0.118509,-0.25218 0.311431,-0.40514 0.158472,-0.12677 0.297651,-0.12677 0.07717,0 0.124021,0.0455 0.04685,0.0441 0.0689,0.16261 l 0.04961,-0.1695 z m -0.440964,0.26182 q 0,-0.11162 -0.03445,-0.16123 -0.0248,-0.0344 -0.06752,-0.0344 -0.04272,0 -0.08819,0.0413 -0.09233,0.0854 -0.199811,0.34726 -0.106107,0.26045 -0.106107,0.45061 0,0.073 0.02343,0.10611 0.0248,0.0317 0.05374,0.0317 0.06201,0 0.125399,-0.0716 0.09095,-0.10198 0.163984,-0.24942 0.129533,-0.25907 0.129533,-0.46026 z m -0.322455,-0.915 h 0.405136 l 0.147447,0.47817 h -0.107485 z"
         style="font-style:italic;font-variant:normal;font-weight:bold;font-stretch:normal;font-size:2.82216954px;font-family:'Times New Roman';-inkscape-font-specification:'Times New Roman, Bold Italic';fill:#666666;fill-opacity:1;stroke-width:0.1009021"
         id="path991" />
      <path
         d="m 53.790607,295.44281 q 0.01654,-0.007 0.02756,-0.0344 0.0069,-0.0138 0.0014,-0.0221 -0.03169,-0.0165 -0.09095,-0.0799 -0.03169,-0.0565 -0.01792,-0.11024 0.01378,-0.0537 0.07166,-0.0854 0.05926,-0.0331 0.122643,-0.0138 0.128155,0.0386 0.128155,0.17776 0,0.0372 -0.01378,0.0786 -0.03032,0.0896 -0.140557,0.13504 -0.08406,0.0345 -0.340369,0.0345 l -0.158472,0.54432 q -0.03307,0.11437 -0.03307,0.13229 0,0.0344 0.03169,0.0344 0.01792,0 0.03721,-0.0165 0.05236,-0.0441 0.130911,-0.16123 l 0.04685,0.0331 q -0.191543,0.34588 -0.421671,0.34588 -0.183276,0 -0.183276,-0.1571 0,-0.0703 0.03445,-0.18878 l 0.06752,-0.23289 q -0.181898,0.26458 -0.260445,0.3514 -0.205323,0.22737 -0.370685,0.22737 -0.07441,0 -0.126777,-0.0537 -0.05237,-0.0551 -0.05237,-0.13642 0,-0.0675 0.03445,-0.18879 l 0.155715,-0.5512 q 0.03858,-0.13642 0.03858,-0.1819 0,-0.0441 -0.04685,-0.062 -0.02618,-0.008 -0.09508,-0.008 l 0.01378,-0.0524 0.469903,-0.0813 h 0.08268 l -0.267334,0.93704 q -0.01929,0.0675 -0.01929,0.0896 0,0.0303 0.03583,0.0303 0.06477,0 0.169496,-0.113 0.150203,-0.16122 0.31832,-0.47128 l 0.1254,-0.42167 0.348637,-0.0124 -0.09095,0.31281 q 0.177764,0 0.237018,-0.0276 z"
         style="font-style:italic;font-variant:normal;font-weight:bold;font-stretch:normal;font-size:2.82216954px;font-family:'Times New Roman';-inkscape-font-specification:'Times New Roman, Bold Italic';fill:#666666;fill-opacity:1;stroke-width:0.1009021"
         id="path993" />
      <path
         d="m 54.625683,295.11898 -0.267334,0.93704 q -0.01929,0.0648 -0.01929,0.0896 0,0.0124 0.0096,0.0193 0.01102,0.011 0.02618,0.011 0.06339,0 0.169495,-0.113 0.151582,-0.16398 0.318321,-0.47128 l 0.125399,-0.42167 0.348637,-0.0124 -0.264578,0.90949 q -0.03307,0.11575 -0.03307,0.13229 0,0.011 0.0096,0.0234 0.01102,0.011 0.02205,0.011 0.01929,0 0.03721,-0.0165 0.04961,-0.04 0.130912,-0.16123 l 0.04685,0.0331 q -0.191544,0.34588 -0.421672,0.34588 -0.08544,0 -0.135045,-0.0427 -0.04823,-0.0441 -0.04823,-0.11438 0,-0.0744 0.03445,-0.18878 l 0.06752,-0.23289 q -0.179141,0.26045 -0.260444,0.3514 -0.124021,0.13642 -0.209458,0.18189 -0.08406,0.0455 -0.161227,0.0455 -0.07303,0 -0.126777,-0.0537 -0.05237,-0.0537 -0.05237,-0.13642 0,-0.0703 0.03445,-0.18879 l 0.155716,-0.5512 q 0.03858,-0.13505 0.03858,-0.1819 0,-0.0207 -0.01102,-0.0358 -0.01102,-0.0165 -0.03721,-0.0248 -0.0248,-0.01 -0.0937,-0.01 l 0.01378,-0.0524 0.469902,-0.0813 z"
         style="font-style:italic;font-variant:normal;font-weight:bold;font-stretch:normal;font-size:2.82216954px;font-family:'Times New Roman';-inkscape-font-specification:'Times New Roman, Bold Italic';fill:#666666;fill-opacity:1;stroke-width:0.1009021"
         id="path995" />
      <path
         d="m 56.961415,294.78274 -0.110241,0.37482 h 0.18052 l -0.04823,0.15847 H 56.8057 l -0.230128,0.79925 q -0.02205,0.0744 -0.02205,0.113 0,0.0179 0.0124,0.0317 0.0124,0.0124 0.02756,0.0124 0.02343,0 0.04823,-0.0193 0.06339,-0.0482 0.147447,-0.16812 l 0.04823,0.0303 q -0.09508,0.16536 -0.209458,0.24253 -0.114375,0.0772 -0.224616,0.0772 -0.0937,0 -0.146069,-0.0469 -0.05099,-0.0482 -0.05099,-0.12126 0,-0.0799 0.03583,-0.20532 l 0.217726,-0.74551 h -0.18741 l 0.02756,-0.10197 q 0.176386,-0.0648 0.297651,-0.15158 0.121265,-0.0868 0.292139,-0.27974 z"
         style="font-style:italic;font-variant:normal;font-weight:bold;font-stretch:normal;font-size:2.82216954px;font-family:'Times New Roman';-inkscape-font-specification:'Times New Roman, Bold Italic';fill:#666666;fill-opacity:1;stroke-width:0.1009021"
         id="path997" />
      <path
         d="m 57.569119,294.48509 q 0.08544,0 0.143313,0.0592 0.05926,0.0593 0.05926,0.14332 0,0.0841 -0.05926,0.14331 -0.05925,0.0593 -0.143313,0.0593 -0.08268,0 -0.141935,-0.0593 -0.05926,-0.0592 -0.05926,-0.14331 0,-0.0841 0.05788,-0.14332 0.05925,-0.0592 0.143313,-0.0592 z m 0.08544,0.63389 -0.282493,0.97976 q -0.02343,0.0841 -0.02343,0.11024 0,0.0152 0.0124,0.0289 0.0124,0.0124 0.02618,0.0124 0.02343,0 0.04685,-0.0207 0.06201,-0.051 0.148825,-0.18465 l 0.04685,0.0276 q -0.208079,0.36242 -0.442342,0.36242 -0.08957,0 -0.143313,-0.0496 -0.05236,-0.051 -0.05236,-0.12816 0,-0.051 0.02343,-0.12953 l 0.191544,-0.65869 q 0.02756,-0.0951 0.02756,-0.14331 0,-0.0303 -0.02618,-0.0537 -0.02618,-0.0234 -0.07166,-0.0234 -0.02067,0 -0.04961,0.001 l 0.01792,-0.0551 0.467146,-0.0758 z"
         style="font-style:italic;font-variant:normal;font-weight:bold;font-stretch:normal;font-size:2.82216954px;font-family:'Times New Roman';-inkscape-font-specification:'Times New Roman, Bold Italic';fill:#666666;fill-opacity:1;stroke-width:0.1009021"
         id="path999" />
      <path
         d="m 58.158908,295.87964 q -0.0124,0.0896 -0.0124,0.14745 0,0.10335 0.05926,0.16536 0.06063,0.062 0.161227,0.062 0.09646,0 0.192922,-0.0469 0.09784,-0.0469 0.225994,-0.16399 l 0.04134,0.0372 q -0.158471,0.19154 -0.308675,0.27284 -0.150203,0.0813 -0.332101,0.0813 -0.230128,0 -0.31832,-0.11024 -0.08819,-0.11024 -0.08819,-0.25494 0,-0.22599 0.130911,-0.45198 0.132289,-0.226 0.358283,-0.36242 0.227372,-0.13642 0.456122,-0.13642 0.115753,0 0.175008,0.0551 0.05925,0.0551 0.05925,0.13918 0,0.10059 -0.05788,0.19567 -0.07993,0.12954 -0.20119,0.20946 -0.121265,0.0786 -0.271468,0.11989 -0.100595,0.0276 -0.270091,0.0413 z m 0.0124,-0.0717 q 0.121265,-0.0179 0.18741,-0.0482 0.06752,-0.0317 0.130911,-0.0992 0.06477,-0.0689 0.111619,-0.17225 0.04685,-0.10473 0.04685,-0.19568 0,-0.0386 -0.02205,-0.0606 -0.02067,-0.022 -0.05374,-0.022 -0.06614,0 -0.148825,0.0923 -0.151582,0.16812 -0.252177,0.50573 z m 0.337613,-1.32289 h 0.312809 l 0.140557,0.46852 h -0.140557 l -0.184654,-0.27973 -0.405135,0.27973 h -0.144692 z"
         style="font-style:italic;font-variant:normal;font-weight:bold;font-stretch:normal;font-size:2.82216954px;font-family:'Times New Roman';-inkscape-font-specification:'Times New Roman, Bold Italic';fill:#666666;fill-opacity:1;stroke-width:0.1009021"
         id="path1001" />
      <path
         d="m 59.722953,295.11898 -0.170874,0.59116 q 0.172252,-0.25906 0.257689,-0.35415 0.125399,-0.1378 0.216348,-0.18741 0.09095,-0.0496 0.170873,-0.0496 0.07166,0 0.122643,0.0537 0.05099,0.0524 0.05099,0.1378 0,0.0772 -0.03307,0.18741 l -0.176385,0.58841 q -0.02205,0.0772 -0.02205,0.10059 0,0.0138 0.0096,0.0248 0.01102,0.011 0.02205,0.011 0.01378,0 0.02894,-0.011 0.04823,-0.04 0.09784,-0.113 0.0124,-0.0193 0.03996,-0.0579 l 0.05236,0.0317 q -0.202568,0.34037 -0.425806,0.34037 -0.08544,0 -0.133667,-0.0441 -0.04823,-0.0441 -0.04823,-0.11024 0,-0.0579 0.03307,-0.17225 l 0.172251,-0.58841 q 0.01791,-0.0579 0.01791,-0.0854 0,-0.0152 -0.0124,-0.0262 -0.0124,-0.0124 -0.02894,-0.0124 -0.05236,0 -0.126777,0.0716 -0.190166,0.1819 -0.367929,0.54156 l -0.112997,0.40927 h -0.351394 l 0.257689,-0.88468 q 0.03721,-0.13091 0.03721,-0.18603 0,-0.0234 -0.01102,-0.0386 -0.01102,-0.0165 -0.03583,-0.0248 -0.02481,-0.01 -0.0937,-0.01 l 0.01516,-0.0524 0.46439,-0.0813 z"
         style="font-style:italic;font-variant:normal;font-weight:bold;font-stretch:normal;font-size:2.82216954px;font-family:'Times New Roman';-inkscape-font-specification:'Times New Roman, Bold Italic';fill:#666666;fill-opacity:1;stroke-width:0.1009021"
         id="path1003" />
      <path
         d="m 62.2957,295.11898 -0.06063,0.4258 h -0.05099 q -0.01102,-0.16536 -0.101973,-0.26044 -0.08957,-0.0951 -0.192922,-0.0951 -0.06339,0 -0.104729,0.0372 -0.04134,0.0372 -0.04134,0.0896 0,0.0441 0.01791,0.0827 0.01791,0.0386 0.07992,0.10473 0.217726,0.23426 0.264579,0.32246 0.04685,0.0882 0.04685,0.18878 0,0.10887 -0.05512,0.20671 -0.05512,0.0965 -0.165362,0.15571 -0.108863,0.0579 -0.227372,0.0579 -0.07992,0 -0.197056,-0.0317 -0.07717,-0.022 -0.115753,-0.022 -0.03445,0 -0.05374,0.011 -0.01929,0.01 -0.04272,0.0427 h -0.05099 l 0.06752,-0.45888 h 0.0441 q 0.04823,0.16674 0.08957,0.2384 0.04272,0.0703 0.112997,0.11299 0.07028,0.0413 0.135045,0.0413 0.07579,0 0.125399,-0.0469 0.04961,-0.0482 0.04961,-0.11437 0,-0.0648 -0.03307,-0.1254 -0.03169,-0.0606 -0.148825,-0.18879 -0.161227,-0.17501 -0.212214,-0.27009 -0.03583,-0.0689 -0.03583,-0.1571 0,-0.14882 0.107485,-0.24804 0.108863,-0.0992 0.304541,-0.0992 0.08544,0 0.209457,0.0303 0.06201,0.0152 0.09922,0.0152 0.05374,0 0.08682,-0.0455 z"
         style="font-style:italic;font-variant:normal;font-weight:bold;font-stretch:normal;font-size:2.82216954px;font-family:'Times New Roman';-inkscape-font-specification:'Times New Roman, Bold Italic';fill:#666666;fill-opacity:1;stroke-width:0.1009021"
         id="path1005" />
      <path
         d="m 63.269957,295.11898 q 0.108863,0 0.203946,0.051 0.09646,0.0496 0.144692,0.13918 0.04961,0.0896 0.04961,0.19843 0,0.22324 -0.125399,0.44648 -0.124021,0.22324 -0.327967,0.35277 -0.203946,0.12816 -0.410648,0.12816 -0.187409,0 -0.29076,-0.11162 -0.101973,-0.11162 -0.101973,-0.27285 0,-0.19154 0.07579,-0.35828 0.07717,-0.16812 0.1943,-0.29214 0.118509,-0.1254 0.271469,-0.20257 0.152959,-0.0785 0.316942,-0.0785 z m -0.0565,0.073 q -0.07303,0 -0.121265,0.0427 -0.09646,0.0868 -0.217726,0.40651 -0.121265,0.31832 -0.121265,0.57463 0,0.0634 0.03858,0.10473 0.03858,0.0413 0.09095,0.0413 0.05374,0 0.09508,-0.0331 0.06063,-0.0496 0.148825,-0.22186 0.08819,-0.17363 0.144691,-0.38171 0.0565,-0.20946 0.0565,-0.38309 0,-0.0717 -0.03445,-0.11024 -0.03445,-0.04 -0.07993,-0.04 z m -0.0069,-0.70692 h 0.312809 l 0.140557,0.46852 h -0.140557 l -0.184654,-0.27973 -0.405136,0.27973 h -0.144691 z m 0.609081,-0.60357 -0.445098,0.46163 h -0.118509 l 0.148826,-0.46163 z"
         style="font-style:italic;font-variant:normal;font-weight:bold;font-stretch:normal;font-size:2.82216954px;font-family:'Times New Roman';-inkscape-font-specification:'Times New Roman, Bold Italic';fill:#666666;fill-opacity:1;stroke-width:0.1009021"
         id="path1007" />
      <path
         d="m 65.714551,294.48922 -0.456122,1.56818 q -0.03583,0.12264 -0.03583,0.15572 0,0.0331 0.0248,0.0689 0.02618,0.0344 0.05512,0.0455 0.03032,0.01 0.179142,0.0179 l -0.01516,0.051 h -0.941183 l 0.01516,-0.051 q 0.140557,-0.003 0.195677,-0.0234 0.05512,-0.0207 0.08957,-0.0675 0.03583,-0.0469 0.07993,-0.19706 l 0.27009,-0.93153 q 0.06201,-0.21222 0.06477,-0.22462 0.0083,-0.0358 0.0083,-0.0675 0,-0.062 -0.03858,-0.0978 -0.03721,-0.0372 -0.107485,-0.0372 -0.03445,0 -0.136424,0.011 l -0.01102,-0.051 0.701409,-0.1695 z"
         style="font-style:italic;font-variant:normal;font-weight:bold;font-stretch:normal;font-size:2.82216954px;font-family:'Times New Roman';-inkscape-font-specification:'Times New Roman, Bold Italic';fill:#666666;fill-opacity:1;stroke-width:0.1009021"
         id="path1009" />
    </g>
  </g>
</svg>
